<?xml version="1.0" encoding="UTF-8"?>
<svg xmlns:xlink="http://www.w3.org/1999/xlink" xmlns="http://www.w3.org/2000/svg" version="1.1" viewBox="0.0 0.0 703.0 378.0" fill="none" stroke="none" stroke-linecap="square" stroke-miterlimit="10" width="703" height="378">
  <path fill="#ffffff" d="M0 0L703.0 0L703.0 378.0L0 378.0L0 0Z" fill-rule="nonzero"></path>
  <path fill="#38761d" d="M351.5 55.5C431.63583 55.5 497.9687 117.7907 503.00046 197.7684L427.2502 202.5342C424.73434 162.54535 391.5679 131.4 351.5 131.4Z" fill-rule="nonzero"></path>
  <path fill="#3d85c6" d="M503.00046 197.7684C507.1298 263.40237 468.5269 324.23083 407.38132 348.44006L379.44064 277.87003C410.01346 265.7654 429.3149 235.35118 427.2502 202.5342Z" fill-rule="nonzero"></path>
  <path fill="#f3f3f3" d="M218.47664 134.1698C245.15152 85.64836 296.12964 55.5 351.5 55.5L351.5 131.4C323.81482 131.4 298.32578 146.47418 284.9883 170.7349Z" fill-rule="nonzero"></path>
  <path fill="#6aa84f" d="M202.3888 178.85551C205.37364 163.20844 210.80269 148.12868 218.47664 134.1698L284.9883 170.7349C281.15134 177.71434 278.43683 185.25423 276.9444 193.07776Z" fill-rule="nonzero"></path>
  <path fill="#46bdc6" d="M204.46907 245.05113C198.91206 223.40797 198.20172 200.80489 202.3888 178.85551L276.9444 193.07776C274.85086 204.05244 275.20602 215.35399 277.98453 226.17557Z" fill-rule="nonzero"></path>
  <path fill="#ff6d01" d="M262.2742 330.10876C233.69612 309.34558 213.2539 279.2658 204.46907 245.05113L277.98453 226.17557C282.37695 243.2829 292.59805 258.32278 306.8871 268.70438Z" fill-rule="nonzero"></path>
  <path fill="#34a853" d="M407.38132 348.44006C359.06317 367.5706 304.31677 360.6545 262.2742 330.10876L306.8871 268.70438C327.9084 283.97726 355.2816 287.4353 379.44064 277.87003Z" fill-rule="nonzero"></path>
  <path fill="#1a1a1a" d="M26.446875 74.68802Q26.446875 75.93802 26.025 76.87552Q25.603125 77.79739 24.821875 78.29739Q24.05625 78.79739 23.025 78.79739Q22.025 78.79739 21.24375 78.29739Q20.4625 77.79739 20.025 76.89114Q19.603125 75.96927 19.5875 74.75052L19.5875 74.14114Q19.5875 72.90677 20.009375 71.96927Q20.446875 71.03177 21.228125 70.53177Q22.009375 70.01614 23.025 70.01614Q24.040625 70.01614 24.821875 70.51614Q25.603125 71.01614 26.025 71.95364Q26.446875 72.89114 26.446875 74.14114L26.446875 74.68802ZM25.3375 74.12552Q25.3375 72.60989 24.728125 71.79739Q24.11875 70.98489 23.025 70.98489Q21.946875 70.98489 21.3375 71.79739Q20.728125 72.60989 20.7125 74.04739L20.7125 74.68802Q20.7125 76.15677 21.321875 77.00052Q21.946875 77.82864 23.025 77.82864Q24.11875 77.82864 24.7125 77.04739Q25.321875 76.25052 25.3375 74.76614L25.3375 74.12552ZM29.196875 70.79739L29.196875 72.32864L30.36875 72.32864L30.36875 73.17239L29.196875 73.17239L29.196875 77.09427Q29.196875 77.48489 29.353125 77.67239Q29.509375 77.85989 29.884375 77.85989Q30.071875 77.85989 30.4 77.79739L30.4 78.67239Q29.978125 78.79739 29.571875 78.79739Q28.853125 78.79739 28.478125 78.35989Q28.103125 77.90677 28.103125 77.09427L28.103125 73.17239L26.946875 73.17239L26.946875 72.32864L28.103125 72.32864L28.103125 70.79739L29.196875 70.79739ZM32.80625 73.09427Q33.525 72.21927 34.68125 72.21927Q36.696877 72.21927 36.7125 74.48489L36.7125 78.67239L35.61875 78.67239L35.61875 74.46927Q35.61875 73.79739 35.30625 73.46927Q35.009377 73.14114 34.353127 73.14114Q33.821877 73.14114 33.415627 73.42239Q33.025 73.70364 32.80625 74.15677L32.80625 78.67239L31.728125 78.67239L31.728125 69.67239L32.80625 69.67239L32.80625 73.09427ZM41.353127 78.79739Q40.05625 78.79739 39.24375 77.95364Q38.446877 77.09427 38.446877 75.67239L38.446877 75.48489Q38.446877 74.53177 38.80625 73.79739Q39.165627 73.04739 39.80625 72.64114Q40.4625 72.21927 41.2125 72.21927Q42.446877 72.21927 43.134377 73.03177Q43.821877 73.84427 43.821877 75.35989L43.821877 75.81302L39.525 75.81302Q39.55625 76.75052 40.071877 77.32864Q40.603127 77.90677 41.415627 77.90677Q41.978127 77.90677 42.36875 77.67239Q42.775 77.43802 43.0875 77.04739L43.74375 77.56302Q42.946877 78.79739 41.353127 78.79739ZM41.2125 73.10989Q40.55625 73.10989 40.103127 73.59427Q39.665627 74.06302 39.571877 74.92239L42.74375 74.92239L42.74375 74.84427Q42.696877 74.01614 42.290627 73.56302Q41.9 73.10989 41.2125 73.10989ZM47.790627 73.29739Q47.540627 73.26614 47.259377 73.26614Q46.18125 73.26614 45.80625 74.17239L45.80625 78.67239L44.728127 78.67239L44.728127 72.32864L45.775 72.32864L45.790627 73.06302Q46.321877 72.21927 47.30625 72.21927Q47.61875 72.21927 47.790627 72.29739L47.790627 73.29739Z" fill-rule="nonzero"></path>
  <path fill="#9e9e9e" d="M23.165625 96.67239L22.0875 96.67239L22.0875 89.45364L19.9 90.25052L19.9 89.26614L23.009375 88.09427L23.165625 88.09427L23.165625 96.67239ZM32.11875 88.75052L28.5875 96.67239L27.446875 96.67239L30.9625 89.03177L26.353125 89.03177L26.353125 88.14114L32.11875 88.14114L32.11875 88.75052ZM33.74375 96.10989Q33.74375 95.82864 33.9 95.64114Q34.071877 95.45364 34.4 95.45364Q34.74375 95.45364 34.915627 95.64114Q35.0875 95.82864 35.0875 96.10989Q35.0875 96.37552 34.915627 96.56302Q34.74375 96.73489 34.4 96.73489Q34.071877 96.73489 33.9 96.56302Q33.74375 96.37552 33.74375 96.10989ZM41.9625 93.03177Q41.9625 94.93802 41.30625 95.87552Q40.665627 96.79739 39.275 96.79739Q37.915627 96.79739 37.259377 95.89114Q36.603127 94.98489 36.571877 93.17239L36.571877 91.73489Q36.571877 89.84427 37.2125 88.93802Q37.86875 88.01614 39.259377 88.01614Q40.634377 88.01614 41.290627 88.90677Q41.946877 89.78177 41.9625 91.62552L41.9625 93.03177ZM40.86875 91.54739Q40.86875 90.17239 40.478127 89.54739Q40.103127 88.90677 39.259377 88.90677Q38.43125 88.90677 38.040627 89.54739Q37.665627 90.17239 37.665627 91.46927L37.665627 93.20364Q37.665627 94.57864 38.05625 95.25052Q38.4625 95.90677 39.275 95.90677Q40.071877 95.90677 40.4625 95.28177Q40.853127 94.65677 40.86875 93.32864L40.86875 91.54739ZM43.509377 89.78177Q43.509377 89.01614 43.99375 88.51614Q44.49375 88.01614 45.259377 88.01614Q46.040627 88.01614 46.525 88.51614Q47.009377 89.01614 47.009377 89.81302L47.009377 90.23489Q47.009377 91.00052 46.509377 91.50052Q46.025 91.98489 45.275 91.98489Q44.509377 91.98489 44.009377 91.50052Q43.509377 91.00052 43.509377 90.18802L43.509377 89.78177ZM44.321877 90.23489Q44.321877 90.68802 44.571877 90.98489Q44.8375 91.28177 45.275 91.28177Q45.696877 91.28177 45.946877 91.00052Q46.196877 90.70364 46.196877 90.20364L46.196877 89.78177Q46.196877 89.32864 45.946877 89.03177Q45.696877 88.71927 45.259377 88.71927Q44.821877 88.71927 44.571877 89.03177Q44.321877 89.32864 44.321877 89.79739L44.321877 90.23489ZM47.665627 94.57864Q47.665627 93.81302 48.15 93.32864Q48.65 92.82864 49.415627 92.82864Q50.18125 92.82864 50.665627 93.32864Q51.165627 93.81302 51.165627 94.62552L51.165627 95.03177Q51.165627 95.79739 50.68125 96.29739Q50.196877 96.79739 49.43125 96.79739Q48.665627 96.79739 48.165627 96.31302Q47.665627 95.81302 47.665627 95.00052L47.665627 94.57864ZM48.478127 95.03177Q48.478127 95.50052 48.728127 95.79739Q48.99375 96.09427 49.43125 96.09427Q49.853127 96.09427 50.103127 95.81302Q50.353127 95.51614 50.353127 95.01614L50.353127 94.57864Q50.353127 94.10989 50.0875 93.82864Q49.8375 93.53177 49.415627 93.53177Q48.99375 93.53177 48.728127 93.82864Q48.478127 94.10989 48.478127 94.60989L48.478127 95.03177ZM45.525 96.03177L44.9 95.64114L49.071877 88.96927L49.68125 89.35989L45.525 96.03177Z" fill-rule="nonzero"></path>
  <path stroke="#757575" stroke-width="1.0" stroke-linecap="butt" d="M18.9 83.17239L193.7 83.17239L278.09113 83.17239" fill-rule="nonzero"></path>
  <path fill="#9e9e9e" d="M280.09113 83.17239C280.09113 82.067825 279.1957 81.17239 278.09113 81.17239C276.98657 81.17239 276.09113 82.067825 276.09113 83.17239C276.09113 84.27696 276.98657 85.17239 278.09113 85.17239C279.1957 85.17239 280.09113 84.27696 280.09113 83.17239" fill-rule="nonzero"></path>
  <path fill="#1a1a1a" d="M19.884375 153.9506L19.884375 145.41936L22.30625 145.41936Q23.415625 145.41936 24.259375 145.91936Q25.11875 146.40373 25.5875 147.30998Q26.05625 148.21623 26.05625 149.40373L26.05625 149.93498Q26.05625 151.15373 25.5875 152.05998Q25.134375 152.96623 24.259375 153.4506Q23.4 153.93498 22.259375 153.9506L19.884375 153.9506ZM21.009375 146.34123L21.009375 153.02873L22.196875 153.02873Q23.49375 153.02873 24.2125 152.23186Q24.946875 151.41936 24.946875 149.91936L24.946875 149.41936Q24.946875 147.96623 24.259375 147.16936Q23.5875 146.35686 22.321875 146.34123L21.009375 146.34123ZM31.634375 153.9506Q31.540625 153.7631 31.478125 153.27873Q30.728125 154.0756 29.68125 154.0756Q28.74375 154.0756 28.134375 153.54436Q27.540625 153.0131 27.540625 152.18498Q27.540625 151.2006 28.290625 150.65373Q29.040625 150.10686 30.415625 150.10686L31.4625 150.10686L31.4625 149.60686Q31.4625 149.04436 31.11875 148.71623Q30.790625 148.37248 30.11875 148.37248Q29.540625 148.37248 29.15 148.66936Q28.759375 148.9506 28.759375 149.37248L27.665625 149.37248Q27.665625 148.8881 27.99375 148.4506Q28.3375 148.0131 28.915625 147.7631Q29.49375 147.49748 30.18125 147.49748Q31.290625 147.49748 31.9 148.04436Q32.525 148.59123 32.55625 149.54436L32.55625 152.46623Q32.55625 153.34123 32.775 153.85686L32.775 153.9506L31.634375 153.9506ZM29.8375 153.12248Q30.353125 153.12248 30.80625 152.85686Q31.259375 152.59123 31.4625 152.16936L31.4625 150.87248L30.61875 150.87248Q28.61875 150.87248 28.61875 152.04436Q28.61875 152.54436 28.9625 152.84123Q29.30625 153.12248 29.8375 153.12248ZM37.790627 148.5756Q37.540627 148.54436 37.259377 148.54436Q36.18125 148.54436 35.80625 149.4506L35.80625 153.9506L34.728127 153.9506L34.728127 147.60686L35.775 147.60686L35.790627 148.34123Q36.321877 147.49748 37.30625 147.49748Q37.61875 147.49748 37.790627 147.5756L37.790627 148.5756ZM40.49375 151.0131L39.80625 151.71623L39.80625 153.9506L38.728127 153.9506L38.728127 144.9506L39.80625 144.9506L39.80625 150.3881L40.384377 149.7006L42.36875 147.60686L43.68125 147.60686L41.2125 150.2631L43.978127 153.9506L42.696877 153.9506L40.49375 151.0131ZM45.74375 147.60686L45.775 148.40373Q46.509377 147.49748 47.68125 147.49748Q49.696877 147.49748 49.7125 149.7631L49.7125 153.9506L48.61875 153.9506L48.61875 149.74748Q48.61875 149.0756 48.30625 148.74748Q48.009377 148.41936 47.353127 148.41936Q46.821877 148.41936 46.415627 148.7006Q46.025 148.98186 45.80625 149.43498L45.80625 153.9506L44.728127 153.9506L44.728127 147.60686L45.74375 147.60686ZM54.353127 154.0756Q53.05625 154.0756 52.24375 153.23186Q51.446877 152.37248 51.446877 150.9506L51.446877 150.7631Q51.446877 149.80998 51.80625 149.0756Q52.165627 148.3256 52.80625 147.91936Q53.4625 147.49748 54.2125 147.49748Q55.446877 147.49748 56.134377 148.30998Q56.821877 149.12248 56.821877 150.6381L56.821877 151.09123L52.525 151.09123Q52.55625 152.02873 53.071877 152.60686Q53.603127 153.18498 54.415627 153.18498Q54.978127 153.18498 55.36875 152.9506Q55.775 152.71623 56.0875 152.3256L56.74375 152.84123Q55.946877 154.0756 54.353127 154.0756ZM54.2125 148.3881Q53.55625 148.3881 53.103127 148.87248Q52.665627 149.34123 52.571877 150.2006L55.74375 150.2006L55.74375 150.12248Q55.696877 149.29436 55.290627 148.84123Q54.9 148.3881 54.2125 148.3881ZM61.415627 152.2631Q61.415627 151.8256 61.071877 151.59123Q60.74375 151.34123 59.915627 151.16936Q59.103127 150.99748 58.61875 150.74748Q58.134377 150.49748 57.9 150.16936Q57.68125 149.8256 57.68125 149.35686Q57.68125 148.5756 58.3375 148.04436Q58.99375 147.49748 60.025 147.49748Q61.103127 147.49748 61.759377 148.05998Q62.43125 148.60686 62.43125 149.46623L61.353127 149.46623Q61.353127 149.02873 60.9625 148.71623Q60.5875 148.3881 60.025 148.3881Q59.43125 148.3881 59.0875 148.65373Q58.759377 148.90373 58.759377 149.30998Q58.759377 149.7006 59.071877 149.90373Q59.384377 150.10686 60.196877 150.29436Q61.009377 150.46623 61.509377 150.71623Q62.009377 150.96623 62.24375 151.3256Q62.49375 151.68498 62.49375 152.18498Q62.49375 153.04436 61.80625 153.55998Q61.134377 154.0756 60.05625 154.0756Q59.290627 154.0756 58.696877 153.80998Q58.11875 153.52873 57.790627 153.04436Q57.4625 152.55998 57.4625 151.99748L58.540627 151.99748Q58.571877 152.54436 58.978127 152.87248Q59.384377 153.18498 60.05625 153.18498Q60.665627 153.18498 61.040627 152.93498Q61.415627 152.68498 61.415627 152.2631ZM67.41563 152.2631Q67.41563 151.8256 67.07188 151.59123Q66.74375 151.34123 65.91563 151.16936Q65.10313 150.99748 64.61875 150.74748Q64.13438 150.49748 63.9 150.16936Q63.68125 149.8256 63.68125 149.35686Q63.68125 148.5756 64.3375 148.04436Q64.99375 147.49748 66.025 147.49748Q67.10313 147.49748 67.75938 148.05998Q68.43125 148.60686 68.43125 149.46623L67.35313 149.46623Q67.35313 149.02873 66.9625 148.71623Q66.5875 148.3881 66.025 148.3881Q65.43125 148.3881 65.0875 148.65373Q64.75938 148.90373 64.75938 149.30998Q64.75938 149.7006 65.07188 149.90373Q65.38438 150.10686 66.19688 150.29436Q67.00938 150.46623 67.50938 150.71623Q68.00938 150.96623 68.24375 151.3256Q68.49375 151.68498 68.49375 152.18498Q68.49375 153.04436 67.80625 153.55998Q67.13438 154.0756 66.05625 154.0756Q65.29063 154.0756 64.69688 153.80998Q64.11875 153.52873 63.790627 153.04436Q63.4625 152.55998 63.4625 151.99748L64.54063 151.99748Q64.57188 152.54436 64.97813 152.87248Q65.38438 153.18498 66.05625 153.18498Q66.66563 153.18498 67.04063 152.93498Q67.41563 152.68498 67.41563 152.2631Z" fill-rule="nonzero"></path>
  <path fill="#9e9e9e" d="M20.103125 167.66936L20.540625 163.41936L24.915625 163.41936L24.915625 164.41936L21.4625 164.41936L21.196875 166.74748Q21.8375 166.37248 22.634375 166.37248Q23.790625 166.37248 24.478125 167.15373Q25.165625 167.91936 25.165625 169.23186Q25.165625 170.54436 24.446875 171.30998Q23.74375 172.0756 22.4625 172.0756Q21.3375 172.0756 20.61875 171.4506Q19.9 170.80998 19.80625 169.7006L20.821875 169.7006Q20.93125 170.43498 21.353125 170.80998Q21.775 171.18498 22.4625 171.18498Q23.2125 171.18498 23.65 170.66936Q24.0875 170.15373 24.0875 169.24748Q24.0875 168.3881 23.61875 167.87248Q23.15 167.35686 22.36875 167.35686Q21.665625 167.35686 21.259375 167.65373L20.978125 167.8881L20.103125 167.66936ZM26.74375 171.3881Q26.74375 171.10686 26.9 170.91936Q27.071875 170.73186 27.4 170.73186Q27.74375 170.73186 27.915625 170.91936Q28.0875 171.10686 28.0875 171.3881Q28.0875 171.65373 27.915625 171.84123Q27.74375 172.0131 27.4 172.0131Q27.071875 172.0131 26.9 171.84123Q26.74375 171.65373 26.74375 171.3881ZM34.9625 168.30998Q34.9625 170.21623 34.30625 171.15373Q33.665627 172.0756 32.275 172.0756Q30.915625 172.0756 30.259375 171.16936Q29.603125 170.2631 29.571875 168.4506L29.571875 167.0131Q29.571875 165.12248 30.2125 164.21623Q30.86875 163.29436 32.259377 163.29436Q33.634377 163.29436 34.290627 164.18498Q34.946877 165.05998 34.9625 166.90373L34.9625 168.30998ZM33.86875 166.8256Q33.86875 165.4506 33.478127 164.8256Q33.103127 164.18498 32.259377 164.18498Q31.43125 164.18498 31.040625 164.8256Q30.665625 165.4506 30.665625 166.74748L30.665625 168.48186Q30.665625 169.85686 31.05625 170.52873Q31.4625 171.18498 32.275 171.18498Q33.071877 171.18498 33.4625 170.55998Q33.853127 169.93498 33.86875 168.60686L33.86875 166.8256ZM36.509377 165.05998Q36.509377 164.29436 36.99375 163.79436Q37.49375 163.29436 38.259377 163.29436Q39.040627 163.29436 39.525 163.79436Q40.009377 164.29436 40.009377 165.09123L40.009377 165.5131Q40.009377 166.27873 39.509377 166.77873Q39.025 167.2631 38.275 167.2631Q37.509377 167.2631 37.009377 166.77873Q36.509377 166.27873 36.509377 165.46623L36.509377 165.05998ZM37.321877 165.5131Q37.321877 165.96623 37.571877 166.2631Q37.8375 166.55998 38.275 166.55998Q38.696877 166.55998 38.946877 166.27873Q39.196877 165.98186 39.196877 165.48186L39.196877 165.05998Q39.196877 164.60686 38.946877 164.30998Q38.696877 163.99748 38.259377 163.99748Q37.821877 163.99748 37.571877 164.30998Q37.321877 164.60686 37.321877 165.0756L37.321877 165.5131ZM40.665627 169.85686Q40.665627 169.09123 41.15 168.60686Q41.65 168.10686 42.415627 168.10686Q43.18125 168.10686 43.665627 168.60686Q44.165627 169.09123 44.165627 169.90373L44.165627 170.30998Q44.165627 171.0756 43.68125 171.5756Q43.196877 172.0756 42.43125 172.0756Q41.665627 172.0756 41.165627 171.59123Q40.665627 171.09123 40.665627 170.27873L40.665627 169.85686ZM41.478127 170.30998Q41.478127 170.77873 41.728127 171.0756Q41.99375 171.37248 42.43125 171.37248Q42.853127 171.37248 43.103127 171.09123Q43.353127 170.79436 43.353127 170.29436L43.353127 169.85686Q43.353127 169.3881 43.0875 169.10686Q42.8375 168.80998 42.415627 168.80998Q41.99375 168.80998 41.728127 169.10686Q41.478127 169.3881 41.478127 169.8881L41.478127 170.30998ZM38.525 171.30998L37.9 170.91936L42.071877 164.24748L42.68125 164.6381L38.525 171.30998Z" fill-rule="nonzero"></path>
  <path stroke="#757575" stroke-width="1.0" stroke-linecap="butt" d="M18.9 158.4506L193.7 158.4506L215.81558 158.4506" fill-rule="nonzero"></path>
  <path fill="#9e9e9e" d="M217.81558 158.4506C217.81558 157.34604 216.92015 156.4506 215.81558 156.4506C214.71101 156.4506 213.81558 157.34604 213.81558 158.4506C213.81558 159.55518 214.71101 160.4506 215.81558 160.4506C216.92015 160.4506 217.81558 159.55518 217.81558 158.4506" fill-rule="nonzero"></path>
  <path fill="#1a1a1a" d="M24.7125 203.39224L21.009375 203.39224L21.009375 206.40787L25.30625 206.40787L25.30625 207.32974L19.884375 207.32974L19.884375 198.7985L25.259375 198.7985L25.259375 199.72037L21.009375 199.72037L21.009375 202.47037L24.7125 202.47037L24.7125 203.39224ZM26.4625 204.111Q26.4625 202.611 27.134375 201.75162Q27.821875 200.87662 28.978125 200.87662Q30.103125 200.87662 30.759375 201.62662L30.80625 200.986L31.80625 200.986L31.80625 209.76724L30.7125 209.76724L30.7125 206.736Q30.05625 207.45474 28.978125 207.45474Q27.821875 207.45474 27.134375 206.56412Q26.4625 205.65787 26.4625 204.18912L26.4625 204.111ZM27.540625 204.236Q27.540625 205.31412 27.99375 205.93912Q28.4625 206.56412 29.24375 206.56412Q30.2125 206.56412 30.7125 205.70474L30.7125 202.59537Q30.196875 201.76724 29.259375 201.76724Q28.4625 201.76724 27.99375 202.39224Q27.540625 203.01724 27.540625 204.236ZM37.634377 206.70474Q37.009377 207.45474 35.775 207.45474Q34.759377 207.45474 34.228127 206.861Q33.696877 206.26724 33.696877 205.111L33.696877 200.986L34.775 200.986L34.775 205.07974Q34.775 206.53287 35.946877 206.53287Q37.196877 206.53287 37.603127 205.59537L37.603127 200.986L38.696877 200.986L38.696877 207.32974L37.665627 207.32974L37.634377 206.70474ZM41.9 207.32974L40.821877 207.32974L40.821877 200.986L41.9 200.986L41.9 207.32974ZM40.728127 199.31412Q40.728127 199.0485 40.884377 198.861Q41.05625 198.6735 41.36875 198.6735Q41.68125 198.6735 41.8375 198.861Q42.009377 199.0485 42.009377 199.31412Q42.009377 199.56412 41.8375 199.75162Q41.68125 199.9235 41.36875 199.9235Q41.05625 199.9235 40.884377 199.75162Q40.728127 199.56412 40.728127 199.31412ZM49.071877 204.236Q49.071877 205.6735 48.415627 206.56412Q47.759377 207.45474 46.61875 207.45474Q45.4625 207.45474 44.80625 206.72037L44.80625 209.76724L43.728127 209.76724L43.728127 200.986L44.7125 200.986L44.759377 201.68912Q45.43125 200.87662 46.603127 200.87662Q47.74375 200.87662 48.4 201.736Q49.071877 202.59537 49.071877 204.12662L49.071877 204.236ZM47.99375 204.111Q47.99375 203.03287 47.525 202.4235Q47.071877 201.7985 46.275 201.7985Q45.290627 201.7985 44.80625 202.65787L44.80625 205.68912Q45.290627 206.56412 46.290627 206.56412Q47.071877 206.56412 47.525 205.95474Q47.99375 205.32974 47.99375 204.111ZM51.74375 200.986L51.775 201.68912Q52.4625 200.87662 53.65 200.87662Q54.978127 200.87662 55.4625 201.89224Q55.775 201.43912 56.275 201.15787Q56.790627 200.87662 57.478127 200.87662Q59.571877 200.87662 59.603127 203.07974L59.603127 207.32974L58.525 207.32974L58.525 203.14224Q58.525 202.47037 58.2125 202.14224Q57.9 201.7985 57.165627 201.7985Q56.55625 201.7985 56.15 202.15787Q55.759377 202.51724 55.696877 203.12662L55.696877 207.32974L54.61875 207.32974L54.61875 203.1735Q54.61875 201.7985 53.259377 201.7985Q52.196877 201.7985 51.80625 202.70474L51.80625 207.32974L50.7125 207.32974L50.7125 200.986L51.74375 200.986ZM64.35313 207.45474Q63.05625 207.45474 62.24375 206.611Q61.446877 205.75162 61.446877 204.32974L61.446877 204.14224Q61.446877 203.18912 61.80625 202.45474Q62.165627 201.70474 62.80625 201.2985Q63.4625 200.87662 64.2125 200.87662Q65.44688 200.87662 66.13438 201.68912Q66.82188 202.50162 66.82188 204.01724L66.82188 204.47037L62.525 204.47037Q62.55625 205.40787 63.071877 205.986Q63.603127 206.56412 64.41563 206.56412Q64.97813 206.56412 65.36875 206.32974Q65.775 206.09537 66.0875 205.70474L66.74375 206.22037Q65.94688 207.45474 64.35313 207.45474ZM64.2125 201.76724Q63.55625 201.76724 63.103127 202.25162Q62.665627 202.72037 62.571877 203.57974L65.74375 203.57974L65.74375 203.50162Q65.69688 202.6735 65.29063 202.22037Q64.9 201.76724 64.2125 201.76724ZM68.74375 200.986L68.775 201.78287Q69.50938 200.87662 70.68125 200.87662Q72.69688 200.87662 72.7125 203.14224L72.7125 207.32974L71.61875 207.32974L71.61875 203.12662Q71.61875 202.45474 71.30625 202.12662Q71.00938 201.7985 70.35313 201.7985Q69.82188 201.7985 69.41563 202.07974Q69.025 202.361 68.80625 202.81412L68.80625 207.32974L67.72813 207.32974L67.72813 200.986L68.74375 200.986ZM76.19688 199.45474L76.19688 200.986L77.36875 200.986L77.36875 201.82974L76.19688 201.82974L76.19688 205.75162Q76.19688 206.14224 76.35313 206.32974Q76.50938 206.51724 76.88438 206.51724Q77.07188 206.51724 77.4 206.45474L77.4 207.32974Q76.97813 207.45474 76.57188 207.45474Q75.85313 207.45474 75.47813 207.01724Q75.10313 206.56412 75.10313 205.75162L75.10313 201.82974L73.94688 201.82974L73.94688 200.986L75.10313 200.986L75.10313 199.45474L76.19688 199.45474ZM82.25938 207.32974L82.25938 201.82974L81.25938 201.82974L81.25938 200.986L82.25938 200.986L82.25938 200.34537Q82.25938 199.31412 82.79063 198.76724Q83.3375 198.20474 84.3375 198.20474Q84.7125 198.20474 85.0875 198.2985L85.025 199.18912Q84.74375 199.12662 84.44688 199.12662Q83.91563 199.12662 83.61875 199.43912Q83.3375 199.75162 83.3375 200.31412L83.3375 200.986L84.69688 200.986L84.69688 201.82974L83.3375 201.82974L83.3375 207.32974L82.25938 207.32974ZM89.63438 207.32974Q89.54063 207.14224 89.47813 206.65787Q88.72813 207.45474 87.68125 207.45474Q86.74375 207.45474 86.13438 206.9235Q85.54063 206.39224 85.54063 205.56412Q85.54063 204.57974 86.29063 204.03287Q87.04063 203.486 88.41563 203.486L89.4625 203.486L89.4625 202.986Q89.4625 202.4235 89.11875 202.09537Q88.79063 201.75162 88.11875 201.75162Q87.54063 201.75162 87.15 202.0485Q86.75938 202.32974 86.75938 202.75162L85.66563 202.75162Q85.66563 202.26724 85.99375 201.82974Q86.3375 201.39224 86.91563 201.14224Q87.49375 200.87662 88.18125 200.87662Q89.29063 200.87662 89.9 201.4235Q90.525 201.97037 90.55625 202.9235L90.55625 205.84537Q90.55625 206.72037 90.775 207.236L90.775 207.32974L89.63438 207.32974ZM87.8375 206.50162Q88.35313 206.50162 88.80625 206.236Q89.25938 205.97037 89.4625 205.5485L89.4625 204.25162L88.61875 204.25162Q86.61875 204.25162 86.61875 205.4235Q86.61875 205.9235 86.9625 206.22037Q87.30625 206.50162 87.8375 206.50162ZM93.9 207.32974L92.82188 207.32974L92.82188 200.986L93.9 200.986L93.9 207.32974ZM92.72813 199.31412Q92.72813 199.0485 92.88438 198.861Q93.05625 198.6735 93.36875 198.6735Q93.68125 198.6735 93.8375 198.861Q94.00938 199.0485 94.00938 199.31412Q94.00938 199.56412 93.8375 199.75162Q93.68125 199.9235 93.36875 199.9235Q93.05625 199.9235 92.88438 199.75162Q92.72813 199.56412 92.72813 199.31412ZM96.9 207.32974L95.82188 207.32974L95.82188 198.32974L96.9 198.32974L96.9 207.32974ZM102.63438 206.70474Q102.00938 207.45474 100.775 207.45474Q99.75938 207.45474 99.22813 206.861Q98.69688 206.26724 98.69688 205.111L98.69688 200.986L99.775 200.986L99.775 205.07974Q99.775 206.53287 100.94688 206.53287Q102.19688 206.53287 102.60313 205.59537L102.60313 200.986L103.69688 200.986L103.69688 207.32974L102.66563 207.32974L102.63438 206.70474ZM108.79063 201.95474Q108.54063 201.9235 108.25938 201.9235Q107.18125 201.9235 106.80625 202.82974L106.80625 207.32974L105.72813 207.32974L105.72813 200.986L106.775 200.986L106.79063 201.72037Q107.32188 200.87662 108.30625 200.87662Q108.61875 200.87662 108.79063 200.95474L108.79063 201.95474ZM112.35313 207.45474Q111.05625 207.45474 110.24375 206.611Q109.44688 205.75162 109.44688 204.32974L109.44688 204.14224Q109.44688 203.18912 109.80625 202.45474Q110.16563 201.70474 110.80625 201.2985Q111.4625 200.87662 112.2125 200.87662Q113.44688 200.87662 114.13438 201.68912Q114.82188 202.50162 114.82188 204.01724L114.82188 204.47037L110.525 204.47037Q110.55625 205.40787 111.07188 205.986Q111.60313 206.56412 112.41563 206.56412Q112.97813 206.56412 113.36875 206.32974Q113.775 206.09537 114.0875 205.70474L114.74375 206.22037Q113.94688 207.45474 112.35313 207.45474ZM112.2125 201.76724Q111.55625 201.76724 111.10313 202.25162Q110.66563 202.72037 110.57188 203.57974L113.74375 203.57974L113.74375 203.50162Q113.69688 202.6735 113.29063 202.22037Q112.9 201.76724 112.2125 201.76724Z" fill-rule="nonzero"></path>
  <path fill="#9e9e9e" d="M25.11875 217.40787L21.5875 225.32974L20.446875 225.32974L23.9625 217.68912L19.353125 217.68912L19.353125 216.7985L25.11875 216.7985L25.11875 217.40787ZM26.74375 224.76724Q26.74375 224.486 26.9 224.2985Q27.071875 224.111 27.4 224.111Q27.74375 224.111 27.915625 224.2985Q28.0875 224.486 28.0875 224.76724Q28.0875 225.03287 27.915625 225.22037Q27.74375 225.39224 27.4 225.39224Q27.071875 225.39224 26.9 225.22037Q26.74375 225.03287 26.74375 224.76724ZM34.9625 221.68912Q34.9625 223.59537 34.30625 224.53287Q33.665627 225.45474 32.275 225.45474Q30.915625 225.45474 30.259375 224.5485Q29.603125 223.64224 29.571875 221.82974L29.571875 220.39224Q29.571875 218.50162 30.2125 217.59537Q30.86875 216.6735 32.259377 216.6735Q33.634377 216.6735 34.290627 217.56412Q34.946877 218.43912 34.9625 220.28287L34.9625 221.68912ZM33.86875 220.20474Q33.86875 218.82974 33.478127 218.20474Q33.103127 217.56412 32.259377 217.56412Q31.43125 217.56412 31.040625 218.20474Q30.665625 218.82974 30.665625 220.12662L30.665625 221.861Q30.665625 223.236 31.05625 223.90787Q31.4625 224.56412 32.275 224.56412Q33.071877 224.56412 33.4625 223.93912Q33.853127 223.31412 33.86875 221.986L33.86875 220.20474ZM36.509377 218.43912Q36.509377 217.6735 36.99375 217.1735Q37.49375 216.6735 38.259377 216.6735Q39.040627 216.6735 39.525 217.1735Q40.009377 217.6735 40.009377 218.47037L40.009377 218.89224Q40.009377 219.65787 39.509377 220.15787Q39.025 220.64224 38.275 220.64224Q37.509377 220.64224 37.009377 220.15787Q36.509377 219.65787 36.509377 218.84537L36.509377 218.43912ZM37.321877 218.89224Q37.321877 219.34537 37.571877 219.64224Q37.8375 219.93912 38.275 219.93912Q38.696877 219.93912 38.946877 219.65787Q39.196877 219.361 39.196877 218.861L39.196877 218.43912Q39.196877 217.986 38.946877 217.68912Q38.696877 217.37662 38.259377 217.37662Q37.821877 217.37662 37.571877 217.68912Q37.321877 217.986 37.321877 218.45474L37.321877 218.89224ZM40.665627 223.236Q40.665627 222.47037 41.15 221.986Q41.65 221.486 42.415627 221.486Q43.18125 221.486 43.665627 221.986Q44.165627 222.47037 44.165627 223.28287L44.165627 223.68912Q44.165627 224.45474 43.68125 224.95474Q43.196877 225.45474 42.43125 225.45474Q41.665627 225.45474 41.165627 224.97037Q40.665627 224.47037 40.665627 223.65787L40.665627 223.236ZM41.478127 223.68912Q41.478127 224.15787 41.728127 224.45474Q41.99375 224.75162 42.43125 224.75162Q42.853127 224.75162 43.103127 224.47037Q43.353127 224.1735 43.353127 223.6735L43.353127 223.236Q43.353127 222.76724 43.0875 222.486Q42.8375 222.18912 42.415627 222.18912Q41.99375 222.18912 41.728127 222.486Q41.478127 222.76724 41.478127 223.26724L41.478127 223.68912ZM38.525 224.68912L37.9 224.2985L42.071877 217.62662L42.68125 218.01724L38.525 224.68912Z" fill-rule="nonzero"></path>
  <path stroke="#757575" stroke-width="1.0" stroke-linecap="butt" d="M18.9 211.82974L193.7 211.82974L207.36116 211.82974" fill-rule="nonzero"></path>
  <path fill="#9e9e9e" d="M209.36116 211.82974C209.36116 210.72517 208.46573 209.82974 207.36116 209.82974C206.25659 209.82974 205.36116 210.72517 205.36116 211.82974C205.36116 212.93431 206.25659 213.82974 207.36116 213.82974C208.46573 213.82974 209.36116 212.93431 209.36116 211.82974" fill-rule="nonzero"></path>
  <path fill="#1a1a1a" d="M21.728125 281.17053L21.9 282.29553L22.134375 281.2799L23.821875 275.32678L24.775 275.32678L26.415625 281.2799L26.65 282.31116L26.8375 281.1549L28.165625 275.32678L29.290625 275.32678L27.228125 283.85803L26.196875 283.85803L24.43125 277.63928L24.30625 276.98303L24.165625 277.63928L22.353125 283.85803L21.321875 283.85803L19.259375 275.32678L20.384375 275.32678L21.728125 281.17053ZM33.353127 283.98303Q32.05625 283.98303 31.24375 283.13928Q30.446875 282.2799 30.446875 280.85803L30.446875 280.67053Q30.446875 279.7174 30.80625 278.98303Q31.165625 278.23303 31.80625 277.82678Q32.4625 277.4049 33.2125 277.4049Q34.446877 277.4049 35.134377 278.2174Q35.821877 279.0299 35.821877 280.54553L35.821877 280.99866L31.525 280.99866Q31.55625 281.93616 32.071877 282.51428Q32.603127 283.0924 33.415627 283.0924Q33.978127 283.0924 34.36875 282.85803Q34.775 282.62366 35.0875 282.23303L35.74375 282.74866Q34.946877 283.98303 33.353127 283.98303ZM33.2125 278.29553Q32.55625 278.29553 32.103127 278.7799Q31.665625 279.24866 31.571875 280.10803L34.74375 280.10803L34.74375 280.0299Q34.696877 279.20178 34.290627 278.74866Q33.9 278.29553 33.2125 278.29553ZM40.634377 283.85803Q40.540627 283.67053 40.478127 283.18616Q39.728127 283.98303 38.68125 283.98303Q37.74375 283.98303 37.134377 283.45178Q36.540627 282.92053 36.540627 282.0924Q36.540627 281.10803 37.290627 280.56116Q38.040627 280.01428 39.415627 280.01428L40.4625 280.01428L40.4625 279.51428Q40.4625 278.95178 40.11875 278.62366Q39.790627 278.2799 39.11875 278.2799Q38.540627 278.2799 38.15 278.57678Q37.759377 278.85803 37.759377 279.2799L36.665627 279.2799Q36.665627 278.79553 36.99375 278.35803Q37.3375 277.92053 37.915627 277.67053Q38.49375 277.4049 39.18125 277.4049Q40.290627 277.4049 40.9 277.95178Q41.525 278.49866 41.55625 279.45178L41.55625 282.37366Q41.55625 283.24866 41.775 283.76428L41.775 283.85803L40.634377 283.85803ZM38.8375 283.0299Q39.353127 283.0299 39.80625 282.76428Q40.259377 282.49866 40.4625 282.07678L40.4625 280.7799L39.61875 280.7799Q37.61875 280.7799 37.61875 281.95178Q37.61875 282.45178 37.9625 282.74866Q38.30625 283.0299 38.8375 283.0299ZM45.196877 275.98303L45.196877 277.51428L46.36875 277.51428L46.36875 278.35803L45.196877 278.35803L45.196877 282.2799Q45.196877 282.67053 45.353127 282.85803Q45.509377 283.04553 45.884377 283.04553Q46.071877 283.04553 46.4 282.98303L46.4 283.85803Q45.978127 283.98303 45.571877 283.98303Q44.853127 283.98303 44.478127 283.54553Q44.103127 283.0924 44.103127 282.2799L44.103127 278.35803L42.946877 278.35803L42.946877 277.51428L44.103127 277.51428L44.103127 275.98303L45.196877 275.98303ZM48.80625 278.2799Q49.525 277.4049 50.68125 277.4049Q52.696877 277.4049 52.7125 279.67053L52.7125 283.85803L51.61875 283.85803L51.61875 279.6549Q51.61875 278.98303 51.30625 278.6549Q51.009377 278.32678 50.353127 278.32678Q49.821877 278.32678 49.415627 278.60803Q49.025 278.88928 48.80625 279.3424L48.80625 283.85803L47.728127 283.85803L47.728127 274.85803L48.80625 274.85803L48.80625 278.2799ZM57.353127 283.98303Q56.05625 283.98303 55.24375 283.13928Q54.446877 282.2799 54.446877 280.85803L54.446877 280.67053Q54.446877 279.7174 54.80625 278.98303Q55.165627 278.23303 55.80625 277.82678Q56.4625 277.4049 57.2125 277.4049Q58.446877 277.4049 59.134377 278.2174Q59.821877 279.0299 59.821877 280.54553L59.821877 280.99866L55.525 280.99866Q55.55625 281.93616 56.071877 282.51428Q56.603127 283.0924 57.415627 283.0924Q57.978127 283.0924 58.36875 282.85803Q58.775 282.62366 59.0875 282.23303L59.74375 282.74866Q58.946877 283.98303 57.353127 283.98303ZM57.2125 278.29553Q56.55625 278.29553 56.103127 278.7799Q55.665627 279.24866 55.571877 280.10803L58.74375 280.10803L58.74375 280.0299Q58.696877 279.20178 58.290627 278.74866Q57.9 278.29553 57.2125 278.29553ZM63.790627 278.48303Q63.540627 278.45178 63.259377 278.45178Q62.18125 278.45178 61.80625 279.35803L61.80625 283.85803L60.728127 283.85803L60.728127 277.51428L61.775 277.51428L61.790627 278.24866Q62.321877 277.4049 63.30625 277.4049Q63.61875 277.4049 63.790627 277.48303L63.790627 278.48303Z" fill-rule="nonzero"></path>
  <path fill="#9e9e9e" d="M23.165625 301.85803L22.0875 301.85803L22.0875 294.63928L19.9 295.43616L19.9 294.45178L23.009375 293.2799L23.165625 293.2799L23.165625 301.85803ZM30.165625 301.85803L29.0875 301.85803L29.0875 294.63928L26.9 295.43616L26.9 294.45178L30.009375 293.2799L30.165625 293.2799L30.165625 301.85803ZM33.74375 301.29553Q33.74375 301.01428 33.9 300.82678Q34.071877 300.63928 34.4 300.63928Q34.74375 300.63928 34.915627 300.82678Q35.0875 301.01428 35.0875 301.29553Q35.0875 301.56116 34.915627 301.74866Q34.74375 301.92053 34.4 301.92053Q34.071877 301.92053 33.9 301.74866Q33.74375 301.56116 33.74375 301.29553ZM41.9625 298.2174Q41.9625 300.12366 41.30625 301.06116Q40.665627 301.98303 39.275 301.98303Q37.915627 301.98303 37.259377 301.07678Q36.603127 300.17053 36.571877 298.35803L36.571877 296.92053Q36.571877 295.0299 37.2125 294.12366Q37.86875 293.20178 39.259377 293.20178Q40.634377 293.20178 41.290627 294.0924Q41.946877 294.9674 41.9625 296.81116L41.9625 298.2174ZM40.86875 296.73303Q40.86875 295.35803 40.478127 294.73303Q40.103127 294.0924 39.259377 294.0924Q38.43125 294.0924 38.040627 294.73303Q37.665627 295.35803 37.665627 296.6549L37.665627 298.38928Q37.665627 299.76428 38.05625 300.43616Q38.4625 301.0924 39.275 301.0924Q40.071877 301.0924 40.4625 300.4674Q40.853127 299.8424 40.86875 298.51428L40.86875 296.73303ZM43.509377 294.9674Q43.509377 294.20178 43.99375 293.70178Q44.49375 293.20178 45.259377 293.20178Q46.040627 293.20178 46.525 293.70178Q47.009377 294.20178 47.009377 294.99866L47.009377 295.42053Q47.009377 296.18616 46.509377 296.68616Q46.025 297.17053 45.275 297.17053Q44.509377 297.17053 44.009377 296.68616Q43.509377 296.18616 43.509377 295.37366L43.509377 294.9674ZM44.321877 295.42053Q44.321877 295.87366 44.571877 296.17053Q44.8375 296.4674 45.275 296.4674Q45.696877 296.4674 45.946877 296.18616Q46.196877 295.88928 46.196877 295.38928L46.196877 294.9674Q46.196877 294.51428 45.946877 294.2174Q45.696877 293.9049 45.259377 293.9049Q44.821877 293.9049 44.571877 294.2174Q44.321877 294.51428 44.321877 294.98303L44.321877 295.42053ZM47.665627 299.76428Q47.665627 298.99866 48.15 298.51428Q48.65 298.01428 49.415627 298.01428Q50.18125 298.01428 50.665627 298.51428Q51.165627 298.99866 51.165627 299.81116L51.165627 300.2174Q51.165627 300.98303 50.68125 301.48303Q50.196877 301.98303 49.43125 301.98303Q48.665627 301.98303 48.165627 301.49866Q47.665627 300.99866 47.665627 300.18616L47.665627 299.76428ZM48.478127 300.2174Q48.478127 300.68616 48.728127 300.98303Q48.99375 301.2799 49.43125 301.2799Q49.853127 301.2799 50.103127 300.99866Q50.353127 300.70178 50.353127 300.20178L50.353127 299.76428Q50.353127 299.29553 50.0875 299.01428Q49.8375 298.7174 49.415627 298.7174Q48.99375 298.7174 48.728127 299.01428Q48.478127 299.29553 48.478127 299.79553L48.478127 300.2174ZM45.525 301.2174L44.9 300.82678L49.071877 294.1549L49.68125 294.54553L45.525 301.2174Z" fill-rule="nonzero"></path>
  <path stroke="#757575" stroke-width="1.0" stroke-linecap="butt" d="M18.9 288.35803L193.7 288.35803L232.22672 288.35803" fill-rule="nonzero"></path>
  <path fill="#9e9e9e" d="M234.22672 288.35803C234.22672 287.25348 233.33128 286.35803 232.22672 286.35803C231.12215 286.35803 230.22672 287.25348 230.22672 288.35803C230.22672 289.46262 231.12215 290.35803 232.22672 290.35803C233.33128 290.35803 234.22672 289.46262 234.22672 288.35803" fill-rule="nonzero"></path>
  <path fill="#1a1a1a" d="M21.103125 338.1L19.978125 338.1L19.978125 329.56876L21.103125 329.56876L21.103125 338.1ZM23.74375 331.75626L23.775 332.55313Q24.509375 331.64688 25.68125 331.64688Q27.696875 331.64688 27.7125 333.9125L27.7125 338.1L26.61875 338.1L26.61875 333.89688Q26.61875 333.225 26.30625 332.89688Q26.009375 332.56876 25.353125 332.56876Q24.821875 332.56876 24.415625 332.85Q24.025 333.13126 23.80625 333.58438L23.80625 338.1L22.728125 338.1L22.728125 331.75626L23.74375 331.75626ZM33.415627 336.4125Q33.415627 335.975 33.071877 335.74063Q32.74375 335.49063 31.915625 335.31876Q31.103125 335.14688 30.61875 334.89688Q30.134375 334.64688 29.9 334.31876Q29.68125 333.975 29.68125 333.50626Q29.68125 332.725 30.3375 332.19376Q30.99375 331.64688 32.025 331.64688Q33.103127 331.64688 33.759377 332.20938Q34.43125 332.75626 34.43125 333.61563L33.353127 333.61563Q33.353127 333.17813 32.9625 332.86563Q32.5875 332.5375 32.025 332.5375Q31.43125 332.5375 31.0875 332.80313Q30.759375 333.05313 30.759375 333.45938Q30.759375 333.85 31.071875 334.05313Q31.384375 334.25626 32.196877 334.44376Q33.009377 334.61563 33.509377 334.86563Q34.009377 335.11563 34.24375 335.475Q34.49375 335.83438 34.49375 336.33438Q34.49375 337.19376 33.80625 337.70938Q33.134377 338.225 32.05625 338.225Q31.290625 338.225 30.696875 337.95938Q30.11875 337.67813 29.790625 337.19376Q29.4625 336.70938 29.4625 336.14688L30.540625 336.14688Q30.571875 336.69376 30.978125 337.02188Q31.384375 337.33438 32.05625 337.33438Q32.665627 337.33438 33.040627 337.08438Q33.415627 336.83438 33.415627 336.4125ZM39.634377 337.475Q39.009377 338.225 37.775 338.225Q36.759377 338.225 36.228127 337.63126Q35.696877 337.0375 35.696877 335.88126L35.696877 331.75626L36.775 331.75626L36.775 335.85Q36.775 337.30313 37.946877 337.30313Q39.196877 337.30313 39.603127 336.36563L39.603127 331.75626L40.696877 331.75626L40.696877 338.1L39.665627 338.1L39.634377 337.475ZM43.259377 338.1L43.259377 332.6L42.259377 332.6L42.259377 331.75626L43.259377 331.75626L43.259377 331.11563Q43.259377 330.08438 43.790627 329.5375Q44.3375 328.975 45.3375 328.975Q45.7125 328.975 46.0875 329.06876L46.025 329.95938Q45.74375 329.89688 45.446877 329.89688Q44.915627 329.89688 44.61875 330.20938Q44.3375 330.52188 44.3375 331.08438L44.3375 331.75626L45.696877 331.75626L45.696877 332.6L44.3375 332.6L44.3375 338.1L43.259377 338.1ZM47.259377 338.1L47.259377 332.6L46.259377 332.6L46.259377 331.75626L47.259377 331.75626L47.259377 331.11563Q47.259377 330.08438 47.790627 329.5375Q48.3375 328.975 49.3375 328.975Q49.7125 328.975 50.0875 329.06876L50.025 329.95938Q49.74375 329.89688 49.446877 329.89688Q48.915627 329.89688 48.61875 330.20938Q48.3375 330.52188 48.3375 331.08438L48.3375 331.75626L49.696877 331.75626L49.696877 332.6L48.3375 332.6L48.3375 338.1L47.259377 338.1ZM51.9 338.1L50.821877 338.1L50.821877 331.75626L51.9 331.75626L51.9 338.1ZM50.728127 330.08438Q50.728127 329.81876 50.884377 329.63126Q51.05625 329.44376 51.36875 329.44376Q51.68125 329.44376 51.8375 329.63126Q52.009377 329.81876 52.009377 330.08438Q52.009377 330.33438 51.8375 330.52188Q51.68125 330.69376 51.36875 330.69376Q51.05625 330.69376 50.884377 330.52188Q50.728127 330.33438 50.728127 330.08438ZM56.259377 337.33438Q56.8375 337.33438 57.275 336.99063Q57.7125 336.63126 57.759377 336.1L58.790627 336.1Q58.759377 336.64688 58.4 337.14688Q58.05625 337.63126 57.478127 337.92813Q56.915627 338.225 56.259377 338.225Q54.9625 338.225 54.196877 337.36563Q53.446877 336.49063 53.446877 334.99063L53.446877 334.80313Q53.446877 333.88126 53.775 333.1625Q54.11875 332.44376 54.74375 332.05313Q55.384377 331.64688 56.259377 331.64688Q57.321877 331.64688 58.025 332.2875Q58.74375 332.9125 58.790627 333.94376L57.759377 333.94376Q57.7125 333.31876 57.290627 332.92813Q56.86875 332.5375 56.259377 332.5375Q55.43125 332.5375 54.978127 333.13126Q54.525 333.725 54.525 334.85L54.525 335.05313Q54.525 336.14688 54.978127 336.74063Q55.43125 337.33438 56.259377 337.33438ZM60.9 338.1L59.821877 338.1L59.821877 331.75626L60.9 331.75626L60.9 338.1ZM59.728127 330.08438Q59.728127 329.81876 59.884377 329.63126Q60.05625 329.44376 60.36875 329.44376Q60.68125 329.44376 60.8375 329.63126Q61.009377 329.81876 61.009377 330.08438Q61.009377 330.33438 60.8375 330.52188Q60.68125 330.69376 60.36875 330.69376Q60.05625 330.69376 59.884377 330.52188Q59.728127 330.33438 59.728127 330.08438ZM65.35313 338.225Q64.05625 338.225 63.24375 337.38126Q62.446877 336.52188 62.446877 335.1L62.446877 334.9125Q62.446877 333.95938 62.80625 333.225Q63.165627 332.475 63.80625 332.06876Q64.4625 331.64688 65.2125 331.64688Q66.44688 331.64688 67.13438 332.45938Q67.82188 333.27188 67.82188 334.7875L67.82188 335.24063L63.525 335.24063Q63.55625 336.17813 64.07188 336.75626Q64.60313 337.33438 65.41563 337.33438Q65.97813 337.33438 66.36875 337.1Q66.775 336.86563 67.0875 336.475L67.74375 336.99063Q66.94688 338.225 65.35313 338.225ZM65.2125 332.5375Q64.55625 332.5375 64.10313 333.02188Q63.665627 333.49063 63.571877 334.35L66.74375 334.35L66.74375 334.27188Q66.69688 333.44376 66.29063 332.99063Q65.9 332.5375 65.2125 332.5375ZM69.74375 331.75626L69.775 332.55313Q70.50938 331.64688 71.68125 331.64688Q73.69688 331.64688 73.7125 333.9125L73.7125 338.1L72.61875 338.1L72.61875 333.89688Q72.61875 333.225 72.30625 332.89688Q72.00938 332.56876 71.35313 332.56876Q70.82188 332.56876 70.41563 332.85Q70.025 333.13126 69.80625 333.58438L69.80625 338.1L68.72813 338.1L68.72813 331.75626L69.74375 331.75626ZM77.19688 330.225L77.19688 331.75626L78.36875 331.75626L78.36875 332.6L77.19688 332.6L77.19688 336.52188Q77.19688 336.9125 77.35313 337.1Q77.50938 337.2875 77.88438 337.2875Q78.07188 337.2875 78.4 337.225L78.4 338.1Q77.97813 338.225 77.57188 338.225Q76.85313 338.225 76.47813 337.7875Q76.10313 337.33438 76.10313 336.52188L76.10313 332.6L74.94688 332.6L74.94688 331.75626L76.10313 331.75626L76.10313 330.225L77.19688 330.225ZM85.35313 338.225Q84.05625 338.225 83.24375 337.38126Q82.44688 336.52188 82.44688 335.1L82.44688 334.9125Q82.44688 333.95938 82.80625 333.225Q83.16563 332.475 83.80625 332.06876Q84.4625 331.64688 85.2125 331.64688Q86.44688 331.64688 87.13438 332.45938Q87.82188 333.27188 87.82188 334.7875L87.82188 335.24063L83.525 335.24063Q83.55625 336.17813 84.07188 336.75626Q84.60313 337.33438 85.41563 337.33438Q85.97813 337.33438 86.36875 337.1Q86.775 336.86563 87.0875 336.475L87.74375 336.99063Q86.94688 338.225 85.35313 338.225ZM85.2125 332.5375Q84.55625 332.5375 84.10313 333.02188Q83.66563 333.49063 83.57188 334.35L86.74375 334.35L86.74375 334.27188Q86.69688 333.44376 86.29063 332.99063Q85.9 332.5375 85.2125 332.5375ZM88.4625 334.88126Q88.4625 333.38126 89.13438 332.52188Q89.82188 331.64688 90.97813 331.64688Q92.10313 331.64688 92.75938 332.39688L92.80625 331.75626L93.80625 331.75626L93.80625 340.5375L92.7125 340.5375L92.7125 337.50626Q92.05625 338.225 90.97813 338.225Q89.82188 338.225 89.13438 337.33438Q88.4625 336.42813 88.4625 334.95938L88.4625 334.88126ZM89.54063 335.00626Q89.54063 336.08438 89.99375 336.70938Q90.4625 337.33438 91.24375 337.33438Q92.2125 337.33438 92.7125 336.475L92.7125 333.36563Q92.19688 332.5375 91.25938 332.5375Q90.4625 332.5375 89.99375 333.1625Q89.54063 333.7875 89.54063 335.00626ZM99.63438 337.475Q99.00938 338.225 97.775 338.225Q96.75938 338.225 96.22813 337.63126Q95.69688 337.0375 95.69688 335.88126L95.69688 331.75626L96.775 331.75626L96.775 335.85Q96.775 337.30313 97.94688 337.30313Q99.19688 337.30313 99.60313 336.36563L99.60313 331.75626L100.69688 331.75626L100.69688 338.1L99.66563 338.1L99.63438 337.475ZM103.9 338.1L102.82188 338.1L102.82188 331.75626L103.9 331.75626L103.9 338.1ZM102.72813 330.08438Q102.72813 329.81876 102.88438 329.63126Q103.05625 329.44376 103.36875 329.44376Q103.68125 329.44376 103.8375 329.63126Q104.00938 329.81876 104.00938 330.08438Q104.00938 330.33438 103.8375 330.52188Q103.68125 330.69376 103.36875 330.69376Q103.05625 330.69376 102.88438 330.52188Q102.72813 330.33438 102.72813 330.08438ZM111.07188 335.00626Q111.07188 336.44376 110.41563 337.33438Q109.75938 338.225 108.61875 338.225Q107.4625 338.225 106.80625 337.49063L106.80625 340.5375L105.72813 340.5375L105.72813 331.75626L106.7125 331.75626L106.75938 332.45938Q107.43125 331.64688 108.60313 331.64688Q109.74375 331.64688 110.4 332.50626Q111.07188 333.36563 111.07188 334.89688L111.07188 335.00626ZM109.99375 334.88126Q109.99375 333.80313 109.525 333.19376Q109.07188 332.56876 108.275 332.56876Q107.29063 332.56876 106.80625 333.42813L106.80625 336.45938Q107.29063 337.33438 108.29063 337.33438Q109.07188 337.33438 109.525 336.725Q109.99375 336.1 109.99375 334.88126ZM113.74375 331.75626L113.775 332.45938Q114.4625 331.64688 115.65 331.64688Q116.97813 331.64688 117.4625 332.6625Q117.775 332.20938 118.275 331.92813Q118.79063 331.64688 119.47813 331.64688Q121.57188 331.64688 121.60313 333.85L121.60313 338.1L120.525 338.1L120.525 333.9125Q120.525 333.24063 120.2125 332.9125Q119.9 332.56876 119.16563 332.56876Q118.55625 332.56876 118.15 332.92813Q117.75938 333.2875 117.69688 333.89688L117.69688 338.1L116.61875 338.1L116.61875 333.94376Q116.61875 332.56876 115.25938 332.56876Q114.19688 332.56876 113.80625 333.475L113.80625 338.1L112.7125 338.1L112.7125 331.75626L113.74375 331.75626ZM126.35313 338.225Q125.05625 338.225 124.24375 337.38126Q123.44688 336.52188 123.44688 335.1L123.44688 334.9125Q123.44688 333.95938 123.80625 333.225Q124.16563 332.475 124.80625 332.06876Q125.4625 331.64688 126.2125 331.64688Q127.44688 331.64688 128.13437 332.45938Q128.82187 333.27188 128.82187 334.7875L128.82187 335.24063L124.525 335.24063Q124.55625 336.17813 125.07188 336.75626Q125.60313 337.33438 126.41563 337.33438Q126.97813 337.33438 127.36875 337.1Q127.775 336.86563 128.0875 336.475L128.74374 336.99063Q127.94688 338.225 126.35313 338.225ZM126.2125 332.5375Q125.55625 332.5375 125.10313 333.02188Q124.66563 333.49063 124.57188 334.35L127.74375 334.35L127.74375 334.27188Q127.69688 333.44376 127.29063 332.99063Q126.9 332.5375 126.2125 332.5375ZM130.74374 331.75626L130.775 332.55313Q131.50937 331.64688 132.68124 331.64688Q134.69687 331.64688 134.7125 333.9125L134.7125 338.1L133.61874 338.1L133.61874 333.89688Q133.61874 333.225 133.30624 332.89688Q133.00937 332.56876 132.35312 332.56876Q131.82187 332.56876 131.41562 332.85Q131.025 333.13126 130.80624 333.58438L130.80624 338.1L129.72812 338.1L129.72812 331.75626L130.74374 331.75626ZM138.19687 330.225L138.19687 331.75626L139.36874 331.75626L139.36874 332.6L138.19687 332.6L138.19687 336.52188Q138.19687 336.9125 138.35312 337.1Q138.50937 337.2875 138.88437 337.2875Q139.07187 337.2875 139.4 337.225L139.4 338.1Q138.97812 338.225 138.57187 338.225Q137.85312 338.225 137.47812 337.7875Q137.10312 337.33438 137.10312 336.52188L137.10312 332.6L135.94687 332.6L135.94687 331.75626L137.10312 331.75626L137.10312 330.225L138.19687 330.225ZM140.68124 339.80313L140.07187 339.38126Q140.61874 338.61563 140.65 337.7875L140.65 336.81876L141.7125 336.81876L141.7125 337.6625Q141.7125 338.25626 141.41562 338.85Q141.11874 339.44376 140.68124 339.80313ZM148.25937 337.33438Q148.8375 337.33438 149.275 336.99063Q149.7125 336.63126 149.75937 336.1L150.79062 336.1Q150.75937 336.64688 150.4 337.14688Q150.05624 337.63126 149.47812 337.92813Q148.91562 338.225 148.25937 338.225Q146.9625 338.225 146.19687 337.36563Q145.44687 336.49063 145.44687 334.99063L145.44687 334.80313Q145.44687 333.88126 145.775 333.1625Q146.11874 332.44376 146.74374 332.05313Q147.38437 331.64688 148.25937 331.64688Q149.32187 331.64688 150.025 332.2875Q150.74374 332.9125 150.79062 333.94376L149.75937 333.94376Q149.7125 333.31876 149.29062 332.92813Q148.86874 332.5375 148.25937 332.5375Q147.43124 332.5375 146.97812 333.13126Q146.525 333.725 146.525 334.85L146.525 335.05313Q146.525 336.14688 146.97812 336.74063Q147.43124 337.33438 148.25937 337.33438ZM152.9 338.1L151.82187 338.1L151.82187 329.1L152.9 329.1L152.9 338.1ZM154.43124 334.86563Q154.43124 333.94376 154.79062 333.19376Q155.16562 332.44376 155.82187 332.05313Q156.47812 331.64688 157.30624 331.64688Q158.60312 331.64688 159.4 332.5375Q160.2125 333.42813 160.2125 334.92813L160.2125 335.00626Q160.2125 335.92813 159.85312 336.6625Q159.49374 337.39688 158.8375 337.81876Q158.18124 338.225 157.32187 338.225Q156.04062 338.225 155.22812 337.33438Q154.43124 336.42813 154.43124 334.94376L154.43124 334.86563ZM155.525 335.00626Q155.525 336.05313 156.00937 336.69376Q156.50937 337.33438 157.32187 337.33438Q158.15 337.33438 158.63437 336.69376Q159.11874 336.0375 159.11874 334.86563Q159.11874 333.83438 158.61874 333.19376Q158.13437 332.5375 157.30624 332.5375Q156.50937 332.5375 156.00937 333.17813Q155.525 333.80313 155.525 335.00626ZM163.19687 330.225L163.19687 331.75626L164.36874 331.75626L164.36874 332.6L163.19687 332.6L163.19687 336.52188Q163.19687 336.9125 163.35312 337.1Q163.50937 337.2875 163.88437 337.2875Q164.07187 337.2875 164.4 337.225L164.4 338.1Q163.97812 338.225 163.57187 338.225Q162.85312 338.225 162.47812 337.7875Q162.10312 337.33438 162.10312 336.52188L162.10312 332.6L160.94687 332.6L160.94687 331.75626L162.10312 331.75626L162.10312 330.225L163.19687 330.225ZM166.80624 332.52188Q167.525 331.64688 168.68124 331.64688Q170.69687 331.64688 170.7125 333.9125L170.7125 338.1L169.61874 338.1L169.61874 333.89688Q169.61874 333.225 169.30624 332.89688Q169.00937 332.56876 168.35312 332.56876Q167.82187 332.56876 167.41562 332.85Q167.025 333.13126 166.80624 333.58438L166.80624 338.1L165.72812 338.1L165.72812 329.1L166.80624 329.1L166.80624 332.52188ZM173.9 338.1L172.82187 338.1L172.82187 331.75626L173.9 331.75626L173.9 338.1ZM172.72812 330.08438Q172.72812 329.81876 172.88437 329.63126Q173.05624 329.44376 173.36874 329.44376Q173.68124 329.44376 173.8375 329.63126Q174.00937 329.81876 174.00937 330.08438Q174.00937 330.33438 173.8375 330.52188Q173.68124 330.69376 173.36874 330.69376Q173.05624 330.69376 172.88437 330.52188Q172.72812 330.33438 172.72812 330.08438ZM176.74374 331.75626L176.775 332.55313Q177.50937 331.64688 178.68124 331.64688Q180.69687 331.64688 180.7125 333.9125L180.7125 338.1L179.61874 338.1L179.61874 333.89688Q179.61874 333.225 179.30624 332.89688Q179.00937 332.56876 178.35312 332.56876Q177.82187 332.56876 177.41562 332.85Q177.025 333.13126 176.80624 333.58438L176.80624 338.1L175.72812 338.1L175.72812 331.75626L176.74374 331.75626ZM182.4625 334.88126Q182.4625 333.39688 183.15 332.52188Q183.8375 331.64688 184.9625 331.64688Q186.11874 331.64688 186.775 332.45938L186.82187 331.75626L187.82187 331.75626L187.82187 337.94376Q187.82187 339.17813 187.0875 339.88126Q186.35312 340.6 185.13437 340.6Q184.44687 340.6 183.79062 340.30313Q183.13437 340.00626 182.79062 339.50626L183.35312 338.85Q184.04062 339.70938 185.05624 339.70938Q185.8375 339.70938 186.275 339.25626Q186.72812 338.81876 186.72812 338.00626L186.72812 337.45938Q186.07187 338.225 184.94687 338.225Q183.8375 338.225 183.15 337.33438Q182.4625 336.42813 182.4625 334.88126ZM183.55624 335.00626Q183.55624 336.06876 183.99374 336.69376Q184.43124 337.30313 185.22812 337.30313Q186.24374 337.30313 186.72812 336.36563L186.72812 333.475Q186.22812 332.56876 185.22812 332.56876Q184.44687 332.56876 183.99374 333.17813Q183.55624 333.7875 183.55624 335.00626Z" fill-rule="nonzero"></path>
  <path fill="#9e9e9e" d="M23.165625 356.1L22.0875 356.1L22.0875 348.88126L19.9 349.67813L19.9 348.69376L23.009375 347.52188L23.165625 347.52188L23.165625 356.1ZM30.86875 347.56876L30.86875 348.475L30.665625 348.475Q29.4 348.50626 28.65 349.24063Q27.9 349.95938 27.775 351.27188Q28.4625 350.50626 29.61875 350.50626Q30.728125 350.50626 31.4 351.2875Q32.071877 352.06876 32.071877 353.31876Q32.071877 354.63126 31.353125 355.42813Q30.634375 356.225 29.415625 356.225Q28.196875 356.225 27.43125 355.2875Q26.68125 354.33438 26.68125 352.85L26.68125 352.44376Q26.68125 350.08438 27.68125 348.83438Q28.68125 347.58438 30.665625 347.56876L30.86875 347.56876ZM29.446875 351.4125Q28.884375 351.4125 28.415625 351.74063Q27.946875 352.06876 27.759375 352.58438L27.759375 352.975Q27.759375 354.0375 28.228125 354.67813Q28.7125 355.31876 29.415625 355.31876Q30.15 355.31876 30.571875 354.7875Q30.99375 354.24063 30.99375 353.36563Q30.99375 352.49063 30.571875 351.95938Q30.15 351.4125 29.446875 351.4125ZM33.74375 355.5375Q33.74375 355.25626 33.9 355.06876Q34.071877 354.88126 34.4 354.88126Q34.74375 354.88126 34.915627 355.06876Q35.0875 355.25626 35.0875 355.5375Q35.0875 355.80313 34.915627 355.99063Q34.74375 356.1625 34.4 356.1625Q34.071877 356.1625 33.9 355.99063Q33.74375 355.80313 33.74375 355.5375ZM41.9625 352.45938Q41.9625 354.36563 41.30625 355.30313Q40.665627 356.225 39.275 356.225Q37.915627 356.225 37.259377 355.31876Q36.603127 354.4125 36.571877 352.6L36.571877 351.1625Q36.571877 349.27188 37.2125 348.36563Q37.86875 347.44376 39.259377 347.44376Q40.634377 347.44376 41.290627 348.33438Q41.946877 349.20938 41.9625 351.05313L41.9625 352.45938ZM40.86875 350.975Q40.86875 349.6 40.478127 348.975Q40.103127 348.33438 39.259377 348.33438Q38.43125 348.33438 38.040627 348.975Q37.665627 349.6 37.665627 350.89688L37.665627 352.63126Q37.665627 354.00626 38.05625 354.67813Q38.4625 355.33438 39.275 355.33438Q40.071877 355.33438 40.4625 354.70938Q40.853127 354.08438 40.86875 352.75626L40.86875 350.975ZM43.509377 349.20938Q43.509377 348.44376 43.99375 347.94376Q44.49375 347.44376 45.259377 347.44376Q46.040627 347.44376 46.525 347.94376Q47.009377 348.44376 47.009377 349.24063L47.009377 349.6625Q47.009377 350.42813 46.509377 350.92813Q46.025 351.4125 45.275 351.4125Q44.509377 351.4125 44.009377 350.92813Q43.509377 350.42813 43.509377 349.61563L43.509377 349.20938ZM44.321877 349.6625Q44.321877 350.11563 44.571877 350.4125Q44.8375 350.70938 45.275 350.70938Q45.696877 350.70938 45.946877 350.42813Q46.196877 350.13126 46.196877 349.63126L46.196877 349.20938Q46.196877 348.75626 45.946877 348.45938Q45.696877 348.14688 45.259377 348.14688Q44.821877 348.14688 44.571877 348.45938Q44.321877 348.75626 44.321877 349.225L44.321877 349.6625ZM47.665627 354.00626Q47.665627 353.24063 48.15 352.75626Q48.65 352.25626 49.415627 352.25626Q50.18125 352.25626 50.665627 352.75626Q51.165627 353.24063 51.165627 354.05313L51.165627 354.45938Q51.165627 355.225 50.68125 355.725Q50.196877 356.225 49.43125 356.225Q48.665627 356.225 48.165627 355.74063Q47.665627 355.24063 47.665627 354.42813L47.665627 354.00626ZM48.478127 354.45938Q48.478127 354.92813 48.728127 355.225Q48.99375 355.52188 49.43125 355.52188Q49.853127 355.52188 50.103127 355.24063Q50.353127 354.94376 50.353127 354.44376L50.353127 354.00626Q50.353127 353.5375 50.0875 353.25626Q49.8375 352.95938 49.415627 352.95938Q48.99375 352.95938 48.728127 353.25626Q48.478127 353.5375 48.478127 354.0375L48.478127 354.45938ZM45.525 355.45938L44.9 355.06876L49.071877 348.39688L49.68125 348.7875L45.525 355.45938Z" fill-rule="nonzero"></path>
  <path stroke="#757575" stroke-width="1.0" stroke-linecap="butt" d="M18.9 342.6L193.7 342.6L333.4257 350.37286" fill-rule="nonzero"></path>
  <path fill="#9e9e9e" d="M335.4257 350.37286C335.4257 349.26828 334.53027 348.37286 333.4257 348.37286C332.32114 348.37286 331.4257 349.26828 331.4257 350.37286C331.4257 351.47742 332.32114 352.37286 333.4257 352.37286C334.53027 352.37286 335.4257 351.47742 335.4257 350.37286" fill-rule="nonzero"></path>
  <path fill="#1a1a1a" d="M589.9125 93.73794L586.20935 93.73794L586.20935 96.75356L590.5062 96.75356L590.5062 97.67544L585.08435 97.67544L585.08435 89.14419L590.45935 89.14419L590.45935 90.06606L586.20935 90.06606L586.20935 92.81606L589.9125 92.81606L589.9125 93.73794ZM594.9906 92.30044Q594.7406 92.26919 594.45935 92.26919Q593.3812 92.26919 593.0062 93.17544L593.0062 97.67544L591.9281 97.67544L591.9281 91.33169L592.975 91.33169L592.9906 92.06606Q593.52185 91.22231 594.5062 91.22231Q594.8187 91.22231 594.9906 91.30044L594.9906 92.30044ZM598.9906 92.30044Q598.7406 92.26919 598.45935 92.26919Q597.3812 92.26919 597.0062 93.17544L597.0062 97.67544L595.9281 97.67544L595.9281 91.33169L596.975 91.33169L596.9906 92.06606Q597.52185 91.22231 598.5062 91.22231Q598.8187 91.22231 598.9906 91.30044L598.9906 92.30044ZM599.6312 94.44106Q599.6312 93.51919 599.9906 92.76919Q600.3656 92.01919 601.02185 91.62856Q601.6781 91.22231 602.5062 91.22231Q603.8031 91.22231 604.6 92.11294Q605.4125 93.00356 605.4125 94.50356L605.4125 94.58169Q605.4125 95.50356 605.0531 96.23794Q604.6937 96.97231 604.0375 97.39419Q603.3812 97.80044 602.52185 97.80044Q601.2406 97.80044 600.4281 96.90981Q599.6312 96.00356 599.6312 94.51919L599.6312 94.44106ZM600.725 94.58169Q600.725 95.62856 601.20935 96.26919Q601.70935 96.90981 602.52185 96.90981Q603.35 96.90981 603.83435 96.26919Q604.3187 95.61294 604.3187 94.44106Q604.3187 93.40981 603.8187 92.76919Q603.33435 92.11294 602.5062 92.11294Q601.70935 92.11294 601.20935 92.75356Q600.725 93.37856 600.725 94.58169ZM609.9906 92.30044Q609.7406 92.26919 609.45935 92.26919Q608.3812 92.26919 608.0062 93.17544L608.0062 97.67544L606.9281 97.67544L606.9281 91.33169L607.975 91.33169L607.9906 92.06606Q608.52185 91.22231 609.5062 91.22231Q609.8187 91.22231 609.9906 91.30044L609.9906 92.30044ZM614.6156 95.98794Q614.6156 95.55044 614.27185 95.31606Q613.9437 95.06606 613.1156 94.89419Q612.3031 94.72231 611.8187 94.47231Q611.33435 94.22231 611.1 93.89419Q610.8812 93.55044 610.8812 93.08169Q610.8812 92.30044 611.5375 91.76919Q612.1937 91.22231 613.225 91.22231Q614.3031 91.22231 614.95935 91.78481Q615.6312 92.33169 615.6312 93.19106L614.5531 93.19106Q614.5531 92.75356 614.1625 92.44106Q613.7875 92.11294 613.225 92.11294Q612.6312 92.11294 612.2875 92.37856Q611.95935 92.62856 611.95935 93.03481Q611.95935 93.42544 612.27185 93.62856Q612.58435 93.83169 613.39685 94.01919Q614.20935 94.19106 614.70935 94.44106Q615.20935 94.69106 615.4437 95.05044Q615.6937 95.40981 615.6937 95.90981Q615.6937 96.76919 615.0062 97.28481Q614.33435 97.80044 613.2562 97.80044Q612.4906 97.80044 611.89685 97.53481Q611.3187 97.25356 610.9906 96.76919Q610.6625 96.28481 610.6625 95.72231L611.7406 95.72231Q611.77185 96.26919 612.1781 96.59731Q612.58435 96.90981 613.2562 96.90981Q613.8656 96.90981 614.2406 96.65981Q614.6156 96.40981 614.6156 95.98794ZM621.1 97.67544L620.02185 97.67544L620.02185 91.33169L621.1 91.33169L621.1 97.67544ZM619.9281 89.65981Q619.9281 89.39419 620.08435 89.20669Q620.2562 89.01919 620.5687 89.01919Q620.8812 89.01919 621.0375 89.20669Q621.20935 89.39419 621.20935 89.65981Q621.20935 89.90981 621.0375 90.09731Q620.8812 90.26919 620.5687 90.26919Q620.2562 90.26919 620.08435 90.09731Q619.9281 89.90981 619.9281 89.65981ZM623.9437 91.33169L623.975 92.12856Q624.70935 91.22231 625.8812 91.22231Q627.89685 91.22231 627.9125 93.48794L627.9125 97.67544L626.8187 97.67544L626.8187 93.47231Q626.8187 92.80044 626.5062 92.47231Q626.20935 92.14419 625.5531 92.14419Q625.02185 92.14419 624.6156 92.42544Q624.225 92.70669 624.0062 93.15981L624.0062 97.67544L622.9281 97.67544L622.9281 91.33169L623.9437 91.33169ZM634.0375 91.33169L634.0375 98.40981Q634.0375 100.23794 632.3812 100.23794Q632.02185 100.23794 631.725 100.12856L631.725 99.26919Q631.9125 99.31606 632.20935 99.31606Q632.5687 99.31606 632.7562 99.11294Q632.95935 98.92544 632.95935 98.42544L632.95935 91.33169L634.0375 91.33169ZM632.85 89.65981Q632.85 89.39419 633.0062 89.20669Q633.1625 89.01919 633.475 89.01919Q633.7875 89.01919 633.9437 89.20669Q634.1156 89.39419 634.1156 89.65981Q634.1156 89.90981 633.9437 90.09731Q633.7875 90.26919 633.475 90.26919Q633.1625 90.26919 633.0062 90.09731Q632.85 89.90981 632.85 89.65981ZM639.83435 97.05044Q639.20935 97.80044 637.975 97.80044Q636.95935 97.80044 636.4281 97.20669Q635.89685 96.61294 635.89685 95.45669L635.89685 91.33169L636.975 91.33169L636.975 95.42544Q636.975 96.87856 638.14685 96.87856Q639.39685 96.87856 639.8031 95.94106L639.8031 91.33169L640.89685 91.33169L640.89685 97.67544L639.8656 97.67544L639.83435 97.05044ZM642.6625 94.45669Q642.6625 92.98794 643.35 92.11294Q644.0375 91.22231 645.1625 91.22231Q646.27185 91.22231 646.9281 91.97231L646.9281 88.67544L648.0062 88.67544L648.0062 97.67544L647.0062 97.67544L646.95935 96.98794Q646.3031 97.80044 645.14685 97.80044Q644.0531 97.80044 643.35 96.89419Q642.6625 95.98794 642.6625 94.53481L642.6625 94.45669ZM643.7406 94.58169Q643.7406 95.65981 644.1781 96.26919Q644.6312 96.87856 645.4125 96.87856Q646.4437 96.87856 646.9281 95.94106L646.9281 93.03481Q646.4437 92.14419 645.4281 92.14419Q644.6312 92.14419 644.1781 92.75356Q643.7406 93.36294 643.7406 94.58169ZM649.6625 94.45669Q649.6625 92.97231 650.35 92.09731Q651.0375 91.22231 652.1625 91.22231Q653.3187 91.22231 653.975 92.03481L654.02185 91.33169L655.02185 91.33169L655.02185 97.51919Q655.02185 98.75356 654.2875 99.45669Q653.5531 100.17544 652.33435 100.17544Q651.64685 100.17544 650.9906 99.87856Q650.33435 99.58169 649.9906 99.08169L650.5531 98.42544Q651.2406 99.28481 652.2562 99.28481Q653.0375 99.28481 653.475 98.83169Q653.9281 98.39419 653.9281 97.58169L653.9281 97.03481Q653.27185 97.80044 652.14685 97.80044Q651.0375 97.80044 650.35 96.90981Q649.6625 96.00356 649.6625 94.45669ZM650.7562 94.58169Q650.7562 95.64419 651.1937 96.26919Q651.6312 96.87856 652.4281 96.87856Q653.4437 96.87856 653.9281 95.94106L653.9281 93.05044Q653.4281 92.14419 652.4281 92.14419Q651.64685 92.14419 651.1937 92.75356Q650.7562 93.36294 650.7562 94.58169ZM657.9437 91.33169L657.975 92.03481Q658.6625 91.22231 659.85 91.22231Q661.1781 91.22231 661.6625 92.23794Q661.975 91.78481 662.475 91.50356Q662.9906 91.22231 663.6781 91.22231Q665.77185 91.22231 665.8031 93.42544L665.8031 97.67544L664.725 97.67544L664.725 93.48794Q664.725 92.81606 664.4125 92.48794Q664.1 92.14419 663.3656 92.14419Q662.7562 92.14419 662.35 92.50356Q661.95935 92.86294 661.89685 93.47231L661.89685 97.67544L660.8187 97.67544L660.8187 93.51919Q660.8187 92.14419 659.45935 92.14419Q658.39685 92.14419 658.0062 93.05044L658.0062 97.67544L656.9125 97.67544L656.9125 91.33169L657.9437 91.33169ZM670.5531 97.80044Q669.2562 97.80044 668.4437 96.95669Q667.64685 96.09731 667.64685 94.67544L667.64685 94.48794Q667.64685 93.53481 668.0062 92.80044Q668.3656 92.05044 669.0062 91.64419Q669.6625 91.22231 670.4125 91.22231Q671.64685 91.22231 672.33435 92.03481Q673.02185 92.84731 673.02185 94.36294L673.02185 94.81606L668.725 94.81606Q668.7562 95.75356 669.27185 96.33169Q669.8031 96.90981 670.6156 96.90981Q671.1781 96.90981 671.5687 96.67544Q671.975 96.44106 672.2875 96.05044L672.9437 96.56606Q672.14685 97.80044 670.5531 97.80044ZM670.4125 92.11294Q669.7562 92.11294 669.3031 92.59731Q668.8656 93.06606 668.77185 93.92544L671.9437 93.92544L671.9437 93.84731Q671.89685 93.01919 671.4906 92.56606Q671.1 92.11294 670.4125 92.11294ZM674.9437 91.33169L674.975 92.12856Q675.70935 91.22231 676.8812 91.22231Q678.89685 91.22231 678.9125 93.48794L678.9125 97.67544L677.8187 97.67544L677.8187 93.47231Q677.8187 92.80044 677.5062 92.47231Q677.20935 92.14419 676.5531 92.14419Q676.02185 92.14419 675.6156 92.42544Q675.225 92.70669 675.0062 93.15981L675.0062 97.67544L673.9281 97.67544L673.9281 91.33169L674.9437 91.33169ZM682.39685 89.80044L682.39685 91.33169L683.5687 91.33169L683.5687 92.17544L682.39685 92.17544L682.39685 96.09731Q682.39685 96.48794 682.5531 96.67544Q682.70935 96.86294 683.08435 96.86294Q683.27185 96.86294 683.6 96.80044L683.6 97.67544Q683.1781 97.80044 682.77185 97.80044Q682.0531 97.80044 681.6781 97.36294Q681.3031 96.90981 681.3031 96.09731L681.3031 92.17544L680.14685 92.17544L680.14685 91.33169L681.3031 91.33169L681.3031 89.80044L682.39685 89.80044Z" fill-rule="nonzero"></path>
  <path fill="#9e9e9e" d="M657.39685 115.67544L651.8031 115.67544L651.8031 114.89419L654.7562 111.61294Q655.4125 110.86294 655.6625 110.40981Q655.9125 109.94106 655.9125 109.44106Q655.9125 108.76919 655.5062 108.34731Q655.1156 107.90981 654.4281 107.90981Q653.6312 107.90981 653.1781 108.37856Q652.725 108.83169 652.725 109.65981L651.64685 109.65981Q651.64685 108.47231 652.39685 107.75356Q653.1625 107.01919 654.4281 107.01919Q655.6312 107.01919 656.3187 107.64419Q657.0062 108.26919 657.0062 109.31606Q657.0062 110.56606 655.39685 112.31606L653.1156 114.78481L657.39685 114.78481L657.39685 115.67544ZM663.3812 112.81606L664.5687 112.81606L664.5687 113.69106L663.3812 113.69106L663.3812 115.67544L662.3031 115.67544L662.3031 113.69106L658.4125 113.69106L658.4125 113.05044L662.225 107.14419L663.3812 107.14419L663.3812 112.81606ZM659.64685 112.81606L662.3031 112.81606L662.3031 108.62856L662.1625 108.86294L659.64685 112.81606ZM665.9437 115.11294Q665.9437 114.83169 666.1 114.64419Q666.27185 114.45669 666.6 114.45669Q666.9437 114.45669 667.1156 114.64419Q667.2875 114.83169 667.2875 115.11294Q667.2875 115.37856 667.1156 115.56606Q666.9437 115.73794 666.6 115.73794Q666.27185 115.73794 666.1 115.56606Q665.9437 115.37856 665.9437 115.11294ZM674.1625 112.03481Q674.1625 113.94106 673.5062 114.87856Q672.8656 115.80044 671.475 115.80044Q670.1156 115.80044 669.45935 114.89419Q668.8031 113.98794 668.77185 112.17544L668.77185 110.73794Q668.77185 108.84731 669.4125 107.94106Q670.0687 107.01919 671.45935 107.01919Q672.83435 107.01919 673.4906 107.90981Q674.14685 108.78481 674.1625 110.62856L674.1625 112.03481ZM673.0687 110.55044Q673.0687 109.17544 672.6781 108.55044Q672.3031 107.90981 671.45935 107.90981Q670.6312 107.90981 670.2406 108.55044Q669.8656 109.17544 669.8656 110.47231L669.8656 112.20669Q669.8656 113.58169 670.2562 114.25356Q670.6625 114.90981 671.475 114.90981Q672.27185 114.90981 672.6625 114.28481Q673.0531 113.65981 673.0687 112.33169L673.0687 110.55044ZM675.70935 108.78481Q675.70935 108.01919 676.1937 107.51919Q676.6937 107.01919 677.45935 107.01919Q678.2406 107.01919 678.725 107.51919Q679.20935 108.01919 679.20935 108.81606L679.20935 109.23794Q679.20935 110.00356 678.70935 110.50356Q678.225 110.98794 677.475 110.98794Q676.70935 110.98794 676.20935 110.50356Q675.70935 110.00356 675.70935 109.19106L675.70935 108.78481ZM676.52185 109.23794Q676.52185 109.69106 676.77185 109.98794Q677.0375 110.28481 677.475 110.28481Q677.89685 110.28481 678.14685 110.00356Q678.39685 109.70669 678.39685 109.20669L678.39685 108.78481Q678.39685 108.33169 678.14685 108.03481Q677.89685 107.72231 677.45935 107.72231Q677.02185 107.72231 676.77185 108.03481Q676.52185 108.33169 676.52185 108.80044L676.52185 109.23794ZM679.8656 113.58169Q679.8656 112.81606 680.35 112.33169Q680.85 111.83169 681.6156 111.83169Q682.3812 111.83169 682.8656 112.33169Q683.3656 112.81606 683.3656 113.62856L683.3656 114.03481Q683.3656 114.80044 682.8812 115.30044Q682.39685 115.80044 681.6312 115.80044Q680.8656 115.80044 680.3656 115.31606Q679.8656 114.81606 679.8656 114.00356L679.8656 113.58169ZM680.6781 114.03481Q680.6781 114.50356 680.9281 114.80044Q681.1937 115.09731 681.6312 115.09731Q682.0531 115.09731 682.3031 114.81606Q682.5531 114.51919 682.5531 114.01919L682.5531 113.58169Q682.5531 113.11294 682.2875 112.83169Q682.0375 112.53481 681.6156 112.53481Q681.1937 112.53481 680.9281 112.83169Q680.6781 113.11294 680.6781 113.61294L680.6781 114.03481ZM677.725 115.03481L677.1 114.64419L681.27185 107.97231L681.8812 108.36294L677.725 115.03481Z" fill-rule="nonzero"></path>
  <path stroke="#757575" stroke-width="1.0" stroke-linecap="butt" d="M684.1 102.17544L509.3 102.17544L450.21854 102.17544" fill-rule="nonzero"></path>
  <path fill="#9e9e9e" d="M452.21854 102.17544C452.21854 101.07086 451.32312 100.17544 450.21854 100.17544C449.11398 100.17544 448.21854 101.07086 448.21854 102.17544C448.21854 103.28001 449.11398 104.17544 450.21854 104.17544C451.32312 104.17544 452.21854 103.28001 452.21854 102.17544" fill-rule="nonzero"></path>
  <path fill="#1a1a1a" d="M576.8031 276.30597L573.20935 276.30597L573.20935 280.0716L572.08435 280.0716L572.08435 271.54034L577.3812 271.54034L577.3812 272.46222L573.20935 272.46222L573.20935 275.3841L576.8031 275.3841L576.8031 276.30597ZM582.83435 280.0716Q582.7406 279.8841 582.6781 279.39972Q581.9281 280.1966 580.8812 280.1966Q579.9437 280.1966 579.33435 279.66534Q578.7406 279.1341 578.7406 278.30597Q578.7406 277.3216 579.4906 276.77472Q580.2406 276.22784 581.6156 276.22784L582.6625 276.22784L582.6625 275.72784Q582.6625 275.16534 582.3187 274.83722Q581.9906 274.49347 581.3187 274.49347Q580.7406 274.49347 580.35 274.79034Q579.95935 275.0716 579.95935 275.49347L578.8656 275.49347Q578.8656 275.0091 579.1937 274.5716Q579.5375 274.1341 580.1156 273.8841Q580.6937 273.61847 581.3812 273.61847Q582.4906 273.61847 583.1 274.16534Q583.725 274.71222 583.7562 275.66534L583.7562 278.58722Q583.7562 279.46222 583.975 279.97784L583.975 280.0716L582.83435 280.0716ZM581.0375 279.24347Q581.5531 279.24347 582.0062 278.97784Q582.45935 278.71222 582.6625 278.29034L582.6625 276.99347L581.8187 276.99347Q579.8187 276.99347 579.8187 278.16534Q579.8187 278.66534 580.1625 278.96222Q580.5062 279.24347 581.0375 279.24347ZM587.39685 272.1966L587.39685 273.72784L588.5687 273.72784L588.5687 274.5716L587.39685 274.5716L587.39685 278.49347Q587.39685 278.8841 587.5531 279.0716Q587.70935 279.2591 588.08435 279.2591Q588.27185 279.2591 588.6 279.1966L588.6 280.0716Q588.1781 280.1966 587.77185 280.1966Q587.0531 280.1966 586.6781 279.7591Q586.3031 279.30597 586.3031 278.49347L586.3031 274.5716L585.14685 274.5716L585.14685 273.72784L586.3031 273.72784L586.3031 272.1966L587.39685 272.1966ZM591.1 280.0716L590.02185 280.0716L590.02185 273.72784L591.1 273.72784L591.1 280.0716ZM589.9281 272.05597Q589.9281 271.79034 590.08435 271.60284Q590.2562 271.41534 590.5687 271.41534Q590.8812 271.41534 591.0375 271.60284Q591.20935 271.79034 591.20935 272.05597Q591.20935 272.30597 591.0375 272.49347Q590.8812 272.66534 590.5687 272.66534Q590.2562 272.66534 590.08435 272.49347Q589.9281 272.30597 589.9281 272.05597ZM592.6625 276.85284Q592.6625 275.35284 593.33435 274.49347Q594.02185 273.61847 595.1781 273.61847Q596.3031 273.61847 596.95935 274.36847L597.0062 273.72784L598.0062 273.72784L598.0062 282.5091L596.9125 282.5091L596.9125 279.47784Q596.2562 280.1966 595.1781 280.1966Q594.02185 280.1966 593.33435 279.30597Q592.6625 278.39972 592.6625 276.93097L592.6625 276.85284ZM593.7406 276.97784Q593.7406 278.05597 594.1937 278.68097Q594.6625 279.30597 595.4437 279.30597Q596.4125 279.30597 596.9125 278.4466L596.9125 275.33722Q596.39685 274.5091 595.45935 274.5091Q594.6625 274.5091 594.1937 275.1341Q593.7406 275.7591 593.7406 276.97784ZM603.83435 279.4466Q603.20935 280.1966 601.975 280.1966Q600.95935 280.1966 600.4281 279.60284Q599.89685 279.0091 599.89685 277.85284L599.89685 273.72784L600.975 273.72784L600.975 277.8216Q600.975 279.27472 602.14685 279.27472Q603.39685 279.27472 603.8031 278.33722L603.8031 273.72784L604.89685 273.72784L604.89685 280.0716L603.8656 280.0716L603.83435 279.4466ZM609.5531 280.1966Q608.2562 280.1966 607.4437 279.35284Q606.64685 278.49347 606.64685 277.0716L606.64685 276.8841Q606.64685 275.93097 607.0062 275.1966Q607.3656 274.4466 608.0062 274.04034Q608.6625 273.61847 609.4125 273.61847Q610.64685 273.61847 611.33435 274.43097Q612.02185 275.24347 612.02185 276.7591L612.02185 277.21222L607.725 277.21222Q607.7562 278.14972 608.27185 278.72784Q608.8031 279.30597 609.6156 279.30597Q610.1781 279.30597 610.5687 279.0716Q610.975 278.83722 611.2875 278.4466L611.9437 278.96222Q611.14685 280.1966 609.5531 280.1966ZM609.4125 274.5091Q608.7562 274.5091 608.3031 274.99347Q607.8656 275.46222 607.77185 276.3216L610.9437 276.3216L610.9437 276.24347Q610.89685 275.41534 610.4906 274.96222Q610.1 274.5091 609.4125 274.5091ZM619.83435 280.0716Q619.7406 279.8841 619.6781 279.39972Q618.9281 280.1966 617.8812 280.1966Q616.9437 280.1966 616.33435 279.66534Q615.7406 279.1341 615.7406 278.30597Q615.7406 277.3216 616.4906 276.77472Q617.2406 276.22784 618.6156 276.22784L619.6625 276.22784L619.6625 275.72784Q619.6625 275.16534 619.3187 274.83722Q618.9906 274.49347 618.3187 274.49347Q617.7406 274.49347 617.35 274.79034Q616.95935 275.0716 616.95935 275.49347L615.8656 275.49347Q615.8656 275.0091 616.1937 274.5716Q616.5375 274.1341 617.1156 273.8841Q617.6937 273.61847 618.3812 273.61847Q619.4906 273.61847 620.1 274.16534Q620.725 274.71222 620.7562 275.66534L620.7562 278.58722Q620.7562 279.46222 620.975 279.97784L620.975 280.0716L619.83435 280.0716ZM618.0375 279.24347Q618.5531 279.24347 619.0062 278.97784Q619.45935 278.71222 619.6625 278.29034L619.6625 276.99347L618.8187 276.99347Q616.8187 276.99347 616.8187 278.16534Q616.8187 278.66534 617.1625 278.96222Q617.5062 279.24347 618.0375 279.24347ZM623.9437 273.72784L623.975 274.52472Q624.70935 273.61847 625.8812 273.61847Q627.89685 273.61847 627.9125 275.8841L627.9125 280.0716L626.8187 280.0716L626.8187 275.86847Q626.8187 275.1966 626.5062 274.86847Q626.20935 274.54034 625.5531 274.54034Q625.02185 274.54034 624.6156 274.8216Q624.225 275.10284 624.0062 275.55597L624.0062 280.0716L622.9281 280.0716L622.9281 273.72784L623.9437 273.72784ZM629.6625 276.85284Q629.6625 275.3841 630.35 274.5091Q631.0375 273.61847 632.1625 273.61847Q633.27185 273.61847 633.9281 274.36847L633.9281 271.0716L635.0062 271.0716L635.0062 280.0716L634.0062 280.0716L633.95935 279.3841Q633.3031 280.1966 632.14685 280.1966Q631.0531 280.1966 630.35 279.29034Q629.6625 278.3841 629.6625 276.93097L629.6625 276.85284ZM630.7406 276.97784Q630.7406 278.05597 631.1781 278.66534Q631.6312 279.27472 632.4125 279.27472Q633.4437 279.27472 633.9281 278.33722L633.9281 275.43097Q633.4437 274.54034 632.4281 274.54034Q631.6312 274.54034 631.1781 275.14972Q630.7406 275.7591 630.7406 276.97784ZM645.27185 276.97784Q645.27185 278.41534 644.6156 279.30597Q643.95935 280.1966 642.8187 280.1966Q641.6625 280.1966 641.0062 279.46222L641.0062 282.5091L639.9281 282.5091L639.9281 273.72784L640.9125 273.72784L640.95935 274.43097Q641.6312 273.61847 642.8031 273.61847Q643.9437 273.61847 644.6 274.47784Q645.27185 275.33722 645.27185 276.86847L645.27185 276.97784ZM644.1937 276.85284Q644.1937 275.77472 643.725 275.16534Q643.27185 274.54034 642.475 274.54034Q641.4906 274.54034 641.0062 275.39972L641.0062 278.43097Q641.4906 279.30597 642.4906 279.30597Q643.27185 279.30597 643.725 278.6966Q644.1937 278.0716 644.1937 276.85284ZM648.0062 274.49347Q648.725 273.61847 649.8812 273.61847Q651.89685 273.61847 651.9125 275.8841L651.9125 280.0716L650.8187 280.0716L650.8187 275.86847Q650.8187 275.1966 650.5062 274.86847Q650.20935 274.54034 649.5531 274.54034Q649.02185 274.54034 648.6156 274.8216Q648.225 275.10284 648.0062 275.55597L648.0062 280.0716L646.9281 280.0716L646.9281 271.0716L648.0062 271.0716L648.0062 274.49347ZM655.9906 278.47784L657.475 273.72784L658.6312 273.72784L656.08435 281.05597Q655.4906 282.6341 654.20935 282.6341L653.9906 282.61847L653.6 282.54034L653.6 281.66534L653.8812 281.68097Q654.4437 281.68097 654.7406 281.46222Q655.0531 281.24347 655.2562 280.64972L655.4906 279.99347L653.225 273.72784L654.4125 273.72784L655.9906 278.47784ZM663.6156 278.3841Q663.6156 277.9466 663.27185 277.71222Q662.9437 277.46222 662.1156 277.29034Q661.3031 277.11847 660.8187 276.86847Q660.33435 276.61847 660.1 276.29034Q659.8812 275.9466 659.8812 275.47784Q659.8812 274.6966 660.5375 274.16534Q661.1937 273.61847 662.225 273.61847Q663.3031 273.61847 663.95935 274.18097Q664.6312 274.72784 664.6312 275.58722L663.5531 275.58722Q663.5531 275.14972 663.1625 274.83722Q662.7875 274.5091 662.225 274.5091Q661.6312 274.5091 661.2875 274.77472Q660.95935 275.02472 660.95935 275.43097Q660.95935 275.8216 661.27185 276.02472Q661.58435 276.22784 662.39685 276.41534Q663.20935 276.58722 663.70935 276.83722Q664.20935 277.08722 664.4437 277.4466Q664.6937 277.80597 664.6937 278.30597Q664.6937 279.16534 664.0062 279.68097Q663.33435 280.1966 662.2562 280.1966Q661.4906 280.1966 660.89685 279.93097Q660.3187 279.64972 659.9906 279.16534Q659.6625 278.68097 659.6625 278.11847L660.7406 278.11847Q660.77185 278.66534 661.1781 278.99347Q661.58435 279.30597 662.2562 279.30597Q662.8656 279.30597 663.2406 279.05597Q663.6156 278.80597 663.6156 278.3841ZM667.1 280.0716L666.02185 280.0716L666.02185 273.72784L667.1 273.72784L667.1 280.0716ZM665.9281 272.05597Q665.9281 271.79034 666.08435 271.60284Q666.2562 271.41534 666.5687 271.41534Q666.8812 271.41534 667.0375 271.60284Q667.20935 271.79034 667.20935 272.05597Q667.20935 272.30597 667.0375 272.49347Q666.8812 272.66534 666.5687 272.66534Q666.2562 272.66534 666.08435 272.49347Q665.9281 272.30597 665.9281 272.05597ZM671.45935 279.30597Q672.0375 279.30597 672.475 278.96222Q672.9125 278.60284 672.95935 278.0716L673.9906 278.0716Q673.95935 278.61847 673.6 279.11847Q673.2562 279.60284 672.6781 279.89972Q672.1156 280.1966 671.45935 280.1966Q670.1625 280.1966 669.39685 279.33722Q668.64685 278.46222 668.64685 276.96222L668.64685 276.77472Q668.64685 275.85284 668.975 275.1341Q669.3187 274.41534 669.9437 274.02472Q670.58435 273.61847 671.45935 273.61847Q672.52185 273.61847 673.225 274.2591Q673.9437 274.8841 673.9906 275.91534L672.95935 275.91534Q672.9125 275.29034 672.4906 274.89972Q672.0687 274.5091 671.45935 274.5091Q670.6312 274.5091 670.1781 275.10284Q669.725 275.6966 669.725 276.8216L669.725 277.02472Q669.725 278.11847 670.1781 278.71222Q670.6312 279.30597 671.45935 279.30597ZM678.83435 280.0716Q678.7406 279.8841 678.6781 279.39972Q677.9281 280.1966 676.8812 280.1966Q675.9437 280.1966 675.33435 279.66534Q674.7406 279.1341 674.7406 278.30597Q674.7406 277.3216 675.4906 276.77472Q676.2406 276.22784 677.6156 276.22784L678.6625 276.22784L678.6625 275.72784Q678.6625 275.16534 678.3187 274.83722Q677.9906 274.49347 677.3187 274.49347Q676.7406 274.49347 676.35 274.79034Q675.95935 275.0716 675.95935 275.49347L674.8656 275.49347Q674.8656 275.0091 675.1937 274.5716Q675.5375 274.1341 676.1156 273.8841Q676.6937 273.61847 677.3812 273.61847Q678.4906 273.61847 679.1 274.16534Q679.725 274.71222 679.7562 275.66534L679.7562 278.58722Q679.7562 279.46222 679.975 279.97784L679.975 280.0716L678.83435 280.0716ZM677.0375 279.24347Q677.5531 279.24347 678.0062 278.97784Q678.45935 278.71222 678.6625 278.29034L678.6625 276.99347L677.8187 276.99347Q675.8187 276.99347 675.8187 278.16534Q675.8187 278.66534 676.1625 278.96222Q676.5062 279.24347 677.0375 279.24347ZM683.1 280.0716L682.02185 280.0716L682.02185 271.0716L683.1 271.0716L683.1 280.0716Z" fill-rule="nonzero"></path>
  <path fill="#9e9e9e" d="M657.39685 298.0716L651.8031 298.0716L651.8031 297.29034L654.7562 294.0091Q655.4125 293.2591 655.6625 292.80597Q655.9125 292.33722 655.9125 291.83722Q655.9125 291.16534 655.5062 290.74347Q655.1156 290.30597 654.4281 290.30597Q653.6312 290.30597 653.1781 290.77472Q652.725 291.22784 652.725 292.05597L651.64685 292.05597Q651.64685 290.86847 652.39685 290.14972Q653.1625 289.41534 654.4281 289.41534Q655.6312 289.41534 656.3187 290.04034Q657.0062 290.66534 657.0062 291.71222Q657.0062 292.96222 655.39685 294.71222L653.1156 297.18097L657.39685 297.18097L657.39685 298.0716ZM664.1625 294.43097Q664.1625 296.33722 663.5062 297.27472Q662.8656 298.1966 661.475 298.1966Q660.1156 298.1966 659.45935 297.29034Q658.8031 296.3841 658.77185 294.5716L658.77185 293.1341Q658.77185 291.24347 659.4125 290.33722Q660.0687 289.41534 661.45935 289.41534Q662.83435 289.41534 663.4906 290.30597Q664.14685 291.18097 664.1625 293.02472L664.1625 294.43097ZM663.0687 292.9466Q663.0687 291.5716 662.6781 290.9466Q662.3031 290.30597 661.45935 290.30597Q660.6312 290.30597 660.2406 290.9466Q659.8656 291.5716 659.8656 292.86847L659.8656 294.60284Q659.8656 295.97784 660.2562 296.64972Q660.6625 297.30597 661.475 297.30597Q662.27185 297.30597 662.6625 296.68097Q663.0531 296.05597 663.0687 294.72784L663.0687 292.9466ZM665.9437 297.5091Q665.9437 297.22784 666.1 297.04034Q666.27185 296.85284 666.6 296.85284Q666.9437 296.85284 667.1156 297.04034Q667.2875 297.22784 667.2875 297.5091Q667.2875 297.77472 667.1156 297.96222Q666.9437 298.1341 666.6 298.1341Q666.27185 298.1341 666.1 297.96222Q665.9437 297.77472 665.9437 297.5091ZM674.1625 294.43097Q674.1625 296.33722 673.5062 297.27472Q672.8656 298.1966 671.475 298.1966Q670.1156 298.1966 669.45935 297.29034Q668.8031 296.3841 668.77185 294.5716L668.77185 293.1341Q668.77185 291.24347 669.4125 290.33722Q670.0687 289.41534 671.45935 289.41534Q672.83435 289.41534 673.4906 290.30597Q674.14685 291.18097 674.1625 293.02472L674.1625 294.43097ZM673.0687 292.9466Q673.0687 291.5716 672.6781 290.9466Q672.3031 290.30597 671.45935 290.30597Q670.6312 290.30597 670.2406 290.9466Q669.8656 291.5716 669.8656 292.86847L669.8656 294.60284Q669.8656 295.97784 670.2562 296.64972Q670.6625 297.30597 671.475 297.30597Q672.27185 297.30597 672.6625 296.68097Q673.0531 296.05597 673.0687 294.72784L673.0687 292.9466ZM675.70935 291.18097Q675.70935 290.41534 676.1937 289.91534Q676.6937 289.41534 677.45935 289.41534Q678.2406 289.41534 678.725 289.91534Q679.20935 290.41534 679.20935 291.21222L679.20935 291.6341Q679.20935 292.39972 678.70935 292.89972Q678.225 293.3841 677.475 293.3841Q676.70935 293.3841 676.20935 292.89972Q675.70935 292.39972 675.70935 291.58722L675.70935 291.18097ZM676.52185 291.6341Q676.52185 292.08722 676.77185 292.3841Q677.0375 292.68097 677.475 292.68097Q677.89685 292.68097 678.14685 292.39972Q678.39685 292.10284 678.39685 291.60284L678.39685 291.18097Q678.39685 290.72784 678.14685 290.43097Q677.89685 290.11847 677.45935 290.11847Q677.02185 290.11847 676.77185 290.43097Q676.52185 290.72784 676.52185 291.1966L676.52185 291.6341ZM679.8656 295.97784Q679.8656 295.21222 680.35 294.72784Q680.85 294.22784 681.6156 294.22784Q682.3812 294.22784 682.8656 294.72784Q683.3656 295.21222 683.3656 296.02472L683.3656 296.43097Q683.3656 297.1966 682.8812 297.6966Q682.39685 298.1966 681.6312 298.1966Q680.8656 298.1966 680.3656 297.71222Q679.8656 297.21222 679.8656 296.39972L679.8656 295.97784ZM680.6781 296.43097Q680.6781 296.89972 680.9281 297.1966Q681.1937 297.49347 681.6312 297.49347Q682.0531 297.49347 682.3031 297.21222Q682.5531 296.91534 682.5531 296.41534L682.5531 295.97784Q682.5531 295.5091 682.2875 295.22784Q682.0375 294.93097 681.6156 294.93097Q681.1937 294.93097 680.9281 295.22784Q680.6781 295.5091 680.6781 296.0091L680.6781 296.43097ZM677.725 297.43097L677.1 297.04034L681.27185 290.36847L681.8812 290.7591L677.725 297.43097Z" fill-rule="nonzero"></path>
  <path stroke="#757575" stroke-width="1.0" stroke-linecap="butt" d="M684.1 284.5716L509.3 284.5716L473.26053 284.5716" fill-rule="nonzero"></path>
  <path fill="#9e9e9e" d="M475.26053 284.5716C475.26053 283.467 474.3651 282.5716 473.26053 282.5716C472.15598 282.5716 471.26053 283.467 471.26053 284.5716C471.26053 285.67615 472.15598 286.5716 473.26053 286.5716C474.3651 286.5716 475.26053 285.67615 475.26053 284.5716" fill-rule="nonzero"></path>
  <path fill="#757575" d="M31.009375 33.384377Q30.74375 35.65 29.3375 36.884377Q27.946875 38.103127 25.61875 38.103127Q23.103125 38.103127 21.571875 36.290627Q20.05625 34.478127 20.05625 31.446877L20.05625 30.087502Q20.05625 28.103127 20.759375 26.603127Q21.478125 25.103127 22.775 24.290627Q24.071875 23.478127 25.790625 23.478127Q28.05625 23.478127 29.415625 24.743752Q30.790625 26.009377 31.009375 28.243752L29.11875 28.243752Q28.884375 26.556252 28.05625 25.790627Q27.24375 25.025002 25.790625 25.025002Q23.99375 25.025002 22.9625 26.353127Q21.946875 27.681252 21.946875 30.134377L21.946875 31.509377Q21.946875 33.821877 22.915625 35.196877Q23.884375 36.55625 25.61875 36.55625Q27.18125 36.55625 28.009375 35.853127Q28.853125 35.15 29.11875 33.384377L31.009375 33.384377ZM32.790627 32.525Q32.790627 30.962502 33.4 29.728127Q34.009377 28.478127 35.0875 27.806252Q36.18125 27.134377 37.5875 27.134377Q39.74375 27.134377 41.071877 28.634377Q42.415627 30.118752 42.415627 32.603127L42.415627 32.728127Q42.415627 34.275 41.821877 35.509377Q41.228127 36.728127 40.11875 37.415627Q39.025 38.103127 37.603127 38.103127Q35.4625 38.103127 34.11875 36.603127Q32.790627 35.103127 32.790627 32.65L32.790627 32.525ZM34.603127 32.728127Q34.603127 34.49375 35.415627 35.55625Q36.24375 36.61875 37.603127 36.61875Q38.978127 36.61875 39.790627 35.540627Q40.603127 34.4625 40.603127 32.525Q40.603127 30.775002 39.775 29.696877Q38.946877 28.618752 37.5875 28.618752Q36.24375 28.618752 35.415627 29.681252Q34.603127 30.743752 34.603127 32.728127ZM45.978127 27.337502L46.040627 28.665627Q47.24375 27.134377 49.196877 27.134377Q52.55625 27.134377 52.571877 30.915627L52.571877 37.9L50.775 37.9L50.775 30.900002Q50.759377 29.759377 50.24375 29.212502Q49.74375 28.665627 48.65 28.665627Q47.775 28.665627 47.103127 29.134377Q46.446877 29.603127 46.071877 30.368752L46.071877 37.9L44.275 37.9L44.275 27.337502L45.978127 27.337502ZM57.7125 24.775002L57.7125 27.337502L59.696877 27.337502L59.696877 28.728127L57.7125 28.728127L57.7125 35.275Q57.7125 35.915627 57.978127 36.24375Q58.24375 36.55625 58.884377 36.55625Q59.196877 36.55625 59.74375 36.43125L59.74375 37.9Q59.025 38.103127 58.353127 38.103127Q57.15 38.103127 56.525 37.36875Q55.915627 36.634377 55.915627 35.275L55.915627 28.728127L53.99375 28.728127L53.99375 27.337502L55.915627 27.337502L55.915627 24.775002L57.7125 24.775002ZM67.36875 28.946877Q66.9625 28.884377 66.49375 28.884377Q64.7125 28.884377 64.07188 30.400002L64.07188 37.9L62.275 37.9L62.275 27.337502L64.025 27.337502L64.05625 28.556252Q64.94688 27.134377 66.57188 27.134377Q67.10313 27.134377 67.36875 27.275002L67.36875 28.946877ZM71.22813 37.9L69.43125 37.9L69.43125 27.337502L71.22813 27.337502L71.22813 37.9ZM69.275 24.525002Q69.275 24.087502 69.54063 23.790627Q69.82188 23.478127 70.3375 23.478127Q70.86875 23.478127 71.13438 23.790627Q71.41563 24.087502 71.41563 24.525002Q71.41563 24.962502 71.13438 25.259377Q70.86875 25.556252 70.3375 25.556252Q69.82188 25.556252 69.54063 25.259377Q69.275 24.962502 69.275 24.525002ZM83.2125 32.728127Q83.2125 35.15 82.10313 36.634377Q80.99375 38.103127 79.11875 38.103127Q77.10313 38.103127 76.00938 36.68125L75.93125 37.9L74.275 37.9L74.275 22.900002L76.07188 22.900002L76.07188 28.493752Q77.16563 27.134377 79.0875 27.134377Q81.00938 27.134377 82.10313 28.587502Q83.2125 30.040627 83.2125 32.571877L83.2125 32.728127ZM81.4 32.525Q81.4 30.681252 80.68125 29.681252Q79.97813 28.665627 78.65 28.665627Q76.85313 28.665627 76.07188 30.337502L76.07188 34.9Q76.9 36.55625 78.66563 36.55625Q79.9625 36.55625 80.68125 35.55625Q81.4 34.55625 81.4 32.525ZM91.79063 36.853127Q90.74375 38.103127 88.69688 38.103127Q87.00938 38.103127 86.11875 37.11875Q85.24375 36.134377 85.22813 34.2125L85.22813 27.337502L87.04063 27.337502L87.04063 34.165627Q87.04063 36.55625 88.99375 36.55625Q91.05625 36.55625 91.74375 35.025L91.74375 27.337502L93.55625 27.337502L93.55625 37.9L91.8375 37.9L91.79063 36.853127ZM98.7125 24.775002L98.7125 27.337502L100.69688 27.337502L100.69688 28.728127L98.7125 28.728127L98.7125 35.275Q98.7125 35.915627 98.97813 36.24375Q99.24375 36.55625 99.88438 36.55625Q100.19688 36.55625 100.74375 36.43125L100.74375 37.9Q100.025 38.103127 99.35313 38.103127Q98.15 38.103127 97.525 37.36875Q96.91563 36.634377 96.91563 35.275L96.91563 28.728127L94.99375 28.728127L94.99375 27.337502L96.91563 27.337502L96.91563 24.775002L98.7125 24.775002ZM105.22813 37.9L103.43125 37.9L103.43125 27.337502L105.22813 27.337502L105.22813 37.9ZM103.275 24.525002Q103.275 24.087502 103.54063 23.790627Q103.82188 23.478127 104.3375 23.478127Q104.86875 23.478127 105.13438 23.790627Q105.41563 24.087502 105.41563 24.525002Q105.41563 24.962502 105.13438 25.259377Q104.86875 25.556252 104.3375 25.556252Q103.82188 25.556252 103.54063 25.259377Q103.275 24.962502 103.275 24.525002ZM109.97813 27.337502L110.04063 28.665627Q111.24375 27.134377 113.19688 27.134377Q116.55625 27.134377 116.57188 30.915627L116.57188 37.9L114.775 37.9L114.775 30.900002Q114.75938 29.759377 114.24375 29.212502Q113.74375 28.665627 112.65 28.665627Q111.775 28.665627 111.10313 29.134377Q110.44688 29.603127 110.07188 30.368752L110.07188 37.9L108.275 37.9L108.275 27.337502L109.97813 27.337502ZM118.8375 32.525Q118.8375 30.056252 119.97813 28.603127Q121.11875 27.134377 123.00938 27.134377Q124.94688 27.134377 126.025 28.509377L126.11875 27.337502L127.75938 27.337502L127.75938 37.65Q127.75938 39.696877 126.54063 40.86875Q125.3375 42.05625 123.275 42.05625Q122.13438 42.05625 121.04063 41.571877Q119.94688 41.0875 119.36875 40.228127L120.30625 39.15Q121.47813 40.5875 123.15 40.5875Q124.47813 40.5875 125.2125 39.8375Q125.94688 39.103127 125.94688 37.759377L125.94688 36.8375Q124.86875 38.103127 122.99375 38.103127Q121.13438 38.103127 119.97813 36.603127Q118.8375 35.103127 118.8375 32.525ZM120.65 32.728127Q120.65 34.525 121.38438 35.540627Q122.11875 36.55625 123.43125 36.55625Q125.15 36.55625 125.94688 35.009377L125.94688 30.181252Q125.11875 28.665627 123.4625 28.665627Q122.13438 28.665627 121.38438 29.696877Q120.65 30.728127 120.65 32.728127ZM143.4 31.618752L137.43124 31.618752L137.43124 37.9L135.55624 37.9L135.55624 23.681252L144.35312 23.681252L144.35312 25.228127L137.43124 25.228127L137.43124 30.087502L143.4 30.087502L143.4 31.618752ZM152.79062 37.9Q152.63437 37.5875 152.54062 36.790627Q151.275 38.103127 149.525 38.103127Q147.9625 38.103127 146.9625 37.2125Q145.9625 36.321877 145.9625 34.9625Q145.9625 33.321877 147.2125 32.415627Q148.47812 31.493752 150.74374 31.493752L152.50937 31.493752L152.50937 30.665627Q152.50937 29.712502 151.93124 29.150002Q151.36874 28.587502 150.275 28.587502Q149.30624 28.587502 148.65 29.087502Q147.99374 29.571877 147.99374 30.259377L146.18124 30.259377Q146.18124 29.478127 146.74374 28.743752Q147.30624 27.993752 148.25937 27.571877Q149.22812 27.134377 150.38437 27.134377Q152.2125 27.134377 153.24374 28.056252Q154.275 28.962502 154.32187 30.571877L154.32187 35.43125Q154.32187 36.884377 154.68124 37.74375L154.68124 37.9L152.79062 37.9ZM149.79062 36.525Q150.65 36.525 151.4 36.0875Q152.16562 35.65 152.50937 34.946877L152.50937 32.775L151.0875 32.775Q147.775 32.775 147.775 34.7125Q147.775 35.571877 148.3375 36.05625Q148.9 36.525 149.79062 36.525ZM161.50937 36.61875Q162.47812 36.61875 163.19687 36.040627Q163.91562 35.446877 163.99374 34.571877L165.7125 34.571877Q165.65 35.478127 165.07187 36.30625Q164.50937 37.11875 163.54062 37.61875Q162.5875 38.103127 161.50937 38.103127Q159.35312 38.103127 158.07187 36.665627Q156.80624 35.2125 156.80624 32.7125L156.80624 32.415627Q156.80624 30.868752 157.36874 29.665627Q157.93124 28.462502 158.99374 27.806252Q160.05624 27.134377 161.49374 27.134377Q163.275 27.134377 164.44687 28.196877Q165.63437 29.259377 165.7125 30.962502L163.99374 30.962502Q163.91562 29.946877 163.2125 29.290627Q162.525 28.618752 161.49374 28.618752Q160.11874 28.618752 159.35312 29.618752Q158.60312 30.603127 158.60312 32.478127L158.60312 32.821877Q158.60312 34.65 159.35312 35.634377Q160.10312 36.61875 161.50937 36.61875ZM169.7125 24.775002L169.7125 27.337502L171.69687 27.337502L171.69687 28.728127L169.7125 28.728127L169.7125 35.275Q169.7125 35.915627 169.97812 36.24375Q170.24374 36.55625 170.88437 36.55625Q171.19687 36.55625 171.74374 36.43125L171.74374 37.9Q171.025 38.103127 170.35312 38.103127Q169.15 38.103127 168.525 37.36875Q167.91562 36.634377 167.91562 35.275L167.91562 28.728127L165.99374 28.728127L165.99374 27.337502L167.91562 27.337502L167.91562 24.775002L169.7125 24.775002ZM173.79062 32.525Q173.79062 30.962502 174.4 29.728127Q175.00937 28.478127 176.0875 27.806252Q177.18124 27.134377 178.5875 27.134377Q180.74374 27.134377 182.07187 28.634377Q183.41562 30.118752 183.41562 32.603127L183.41562 32.728127Q183.41562 34.275 182.82187 35.509377Q182.22812 36.728127 181.11874 37.415627Q180.025 38.103127 178.60312 38.103127Q176.4625 38.103127 175.11874 36.603127Q173.79062 35.103127 173.79062 32.65L173.79062 32.525ZM175.60312 32.728127Q175.60312 34.49375 176.41562 35.55625Q177.24374 36.61875 178.60312 36.61875Q179.97812 36.61875 180.79062 35.540627Q181.60312 34.4625 181.60312 32.525Q181.60312 30.775002 180.775 29.696877Q179.94687 28.618752 178.5875 28.618752Q177.24374 28.618752 176.41562 29.681252Q175.60312 30.743752 175.60312 32.728127ZM190.36874 28.946877Q189.9625 28.884377 189.49374 28.884377Q187.7125 28.884377 187.07187 30.400002L187.07187 37.9L185.275 37.9L185.275 27.337502L187.025 27.337502L187.05624 28.556252Q187.94687 27.134377 189.57187 27.134377Q190.10312 27.134377 190.36874 27.275002L190.36874 28.946877ZM198.41562 35.103127Q198.41562 34.36875 197.86874 33.9625Q197.32187 33.55625 195.94687 33.259377Q194.57187 32.9625 193.75937 32.55625Q192.9625 32.15 192.57187 31.587502Q192.19687 31.009377 192.19687 30.228127Q192.19687 28.931252 193.29062 28.040627Q194.38437 27.134377 196.10312 27.134377Q197.9 27.134377 199.00937 28.071877Q200.13437 28.993752 200.13437 30.431252L198.30624 30.431252Q198.30624 29.696877 197.68124 29.165627Q197.05624 28.618752 196.10312 28.618752Q195.10312 28.618752 194.54062 29.056252Q193.99374 29.478127 193.99374 30.181252Q193.99374 30.821877 194.50937 31.165627Q195.025 31.493752 196.38437 31.806252Q197.74374 32.103127 198.57187 32.525Q199.41562 32.93125 199.82187 33.525Q200.22812 34.11875 200.22812 34.9625Q200.22812 36.384377 199.0875 37.24375Q197.9625 38.103127 196.15 38.103127Q194.88437 38.103127 193.9 37.65Q192.93124 37.196877 192.36874 36.4Q191.82187 35.5875 191.82187 34.65L193.63437 34.65Q193.68124 35.55625 194.35312 36.0875Q195.04062 36.61875 196.15 36.61875Q197.18124 36.61875 197.79062 36.2125Q198.41562 35.790627 198.41562 35.103127ZM209.7125 24.775002L209.7125 27.337502L211.69687 27.337502L211.69687 28.728127L209.7125 28.728127L209.7125 35.275Q209.7125 35.915627 209.97812 36.24375Q210.24374 36.55625 210.88437 36.55625Q211.19687 36.55625 211.74374 36.43125L211.74374 37.9Q211.025 38.103127 210.35312 38.103127Q209.15 38.103127 208.525 37.36875Q207.91562 36.634377 207.91562 35.275L207.91562 28.728127L205.99374 28.728127L205.99374 27.337502L207.91562 27.337502L207.91562 24.775002L209.7125 24.775002ZM213.79062 32.525Q213.79062 30.962502 214.4 29.728127Q215.00937 28.478127 216.0875 27.806252Q217.18124 27.134377 218.5875 27.134377Q220.74374 27.134377 222.07187 28.634377Q223.41562 30.118752 223.41562 32.603127L223.41562 32.728127Q223.41562 34.275 222.82187 35.509377Q222.22812 36.728127 221.11874 37.415627Q220.025 38.103127 218.60312 38.103127Q216.4625 38.103127 215.11874 36.603127Q213.79062 35.103127 213.79062 32.65L213.79062 32.525ZM215.60312 32.728127Q215.60312 34.49375 216.41562 35.55625Q217.24374 36.61875 218.60312 36.61875Q219.97812 36.61875 220.79062 35.540627Q221.60312 34.4625 221.60312 32.525Q221.60312 30.775002 220.775 29.696877Q219.94687 28.618752 218.5875 28.618752Q217.24374 28.618752 216.41562 29.681252Q215.60312 30.743752 215.60312 32.728127ZM234.74374 31.556252Q232.32187 30.868752 231.22812 29.868752Q230.13437 28.853127 230.13437 27.368752Q230.13437 25.681252 231.47812 24.587502Q232.82187 23.478127 234.9625 23.478127Q236.43124 23.478127 237.57187 24.056252Q238.72812 24.618752 239.35312 25.618752Q239.97812 26.603127 239.97812 27.790627L238.10312 27.790627Q238.10312 26.509377 237.275 25.775002Q236.4625 25.025002 234.9625 25.025002Q233.57187 25.025002 232.79062 25.634377Q232.025 26.243752 232.025 27.337502Q232.025 28.196877 232.75937 28.806252Q233.49374 29.400002 235.25937 29.900002Q237.04062 30.400002 238.04062 31.009377Q239.04062 31.603127 239.525 32.4Q240.00937 33.196877 240.00937 34.290627Q240.00937 36.009377 238.66562 37.05625Q237.32187 38.103127 235.05624 38.103127Q233.60312 38.103127 232.32187 37.540627Q231.05624 36.978127 230.36874 36.009377Q229.68124 35.025 229.68124 33.775L231.57187 33.775Q231.57187 35.071877 232.525 35.821877Q233.47812 36.55625 235.05624 36.55625Q236.54062 36.55625 237.3375 35.9625Q238.13437 35.353127 238.13437 34.30625Q238.13437 33.259377 237.4 32.696877Q236.66562 32.11875 234.74374 31.556252ZM250.4 34.18125L244.44687 34.18125L243.10312 37.9L241.18124 37.9L246.60312 23.681252L248.24374 23.681252L253.68124 37.9L251.75937 37.9L250.4 34.18125ZM245.00937 32.65L249.85312 32.65L247.43124 25.993752L245.00937 32.65ZM260.75937 32.15L257.43124 32.15L257.43124 37.9L255.54062 37.9L255.54062 23.681252L260.24374 23.681252Q262.65 23.681252 263.94687 24.775002Q265.24374 25.868752 265.24374 27.962502Q265.24374 29.290627 264.525 30.275002Q263.80624 31.259377 262.525 31.743752L265.86874 37.775L265.86874 37.9L263.85312 37.9L260.75937 32.15ZM257.43124 30.618752L260.30624 30.618752Q261.69687 30.618752 262.525 29.900002Q263.35312 29.165627 263.35312 27.962502Q263.35312 26.634377 262.55624 25.931252Q261.775 25.228127 260.29062 25.228127L257.43124 25.228127L257.43124 30.618752ZM283.00937 33.384377Q282.74374 35.65 281.3375 36.884377Q279.94687 38.103127 277.61874 38.103127Q275.10312 38.103127 273.57187 36.290627Q272.05624 34.478127 272.05624 31.446877L272.05624 30.087502Q272.05624 28.103127 272.75937 26.603127Q273.47812 25.103127 274.775 24.290627Q276.07187 23.478127 277.79062 23.478127Q280.05624 23.478127 281.41562 24.743752Q282.79062 26.009377 283.00937 28.243752L281.11874 28.243752Q280.88437 26.556252 280.05624 25.790627Q279.24374 25.025002 277.79062 25.025002Q275.99374 25.025002 274.9625 26.353127Q273.94687 27.681252 273.94687 30.134377L273.94687 31.509377Q273.94687 33.821877 274.91562 35.196877Q275.88437 36.55625 277.61874 36.55625Q279.18124 36.55625 280.00937 35.853127Q280.85312 35.15 281.11874 33.384377L283.00937 33.384377ZM291.79062 37.9Q291.63437 37.5875 291.54062 36.790627Q290.275 38.103127 288.525 38.103127Q286.9625 38.103127 285.9625 37.2125Q284.9625 36.321877 284.9625 34.9625Q284.9625 33.321877 286.2125 32.415627Q287.47812 31.493752 289.74374 31.493752L291.50937 31.493752L291.50937 30.665627Q291.50937 29.712502 290.93124 29.150002Q290.36874 28.587502 289.275 28.587502Q288.30624 28.587502 287.65 29.087502Q286.99374 29.571877 286.99374 30.259377L285.18124 30.259377Q285.18124 29.478127 285.74374 28.743752Q286.30624 27.993752 287.25937 27.571877Q288.22812 27.134377 289.38437 27.134377Q291.2125 27.134377 292.24374 28.056252Q293.275 28.962502 293.32187 30.571877L293.32187 35.43125Q293.32187 36.884377 293.68124 37.74375L293.68124 37.9L291.79062 37.9ZM288.79062 36.525Q289.65 36.525 290.4 36.0875Q291.16562 35.65 291.50937 34.946877L291.50937 32.775L290.0875 32.775Q286.775 32.775 286.775 34.7125Q286.775 35.571877 287.3375 36.05625Q287.9 36.525 288.79062 36.525ZM298.22812 37.9L296.43124 37.9L296.43124 22.900002L298.22812 22.900002L298.22812 37.9ZM303.22812 37.9L301.43124 37.9L301.43124 22.900002L303.22812 22.900002L303.22812 37.9ZM312.41562 35.103127Q312.41562 34.36875 311.86874 33.9625Q311.32187 33.55625 309.94687 33.259377Q308.57187 32.9625 307.75937 32.55625Q306.9625 32.15 306.57187 31.587502Q306.19687 31.009377 306.19687 30.228127Q306.19687 28.931252 307.29062 28.040627Q308.38437 27.134377 310.10312 27.134377Q311.9 27.134377 313.00937 28.071877Q314.13437 28.993752 314.13437 30.431252L312.30624 30.431252Q312.30624 29.696877 311.68124 29.165627Q311.05624 28.618752 310.10312 28.618752Q309.10312 28.618752 308.54062 29.056252Q307.99374 29.478127 307.99374 30.181252Q307.99374 30.821877 308.50937 31.165627Q309.025 31.493752 310.38437 31.806252Q311.74374 32.103127 312.57187 32.525Q313.41562 32.93125 313.82187 33.525Q314.22812 34.11875 314.22812 34.9625Q314.22812 36.384377 313.0875 37.24375Q311.9625 38.103127 310.15 38.103127Q308.88437 38.103127 307.9 37.65Q306.93124 37.196877 306.36874 36.4Q305.82187 35.5875 305.82187 34.65L307.63437 34.65Q307.68124 35.55625 308.35312 36.0875Q309.04062 36.61875 310.15 36.61875Q311.18124 36.61875 311.79062 36.2125Q312.41562 35.790627 312.41562 35.103127Z" fill-rule="nonzero"></path>
</svg>
